<svg width="46" height="46" viewBox="0 0 46 46" fill="none" xmlns="http://www.w3.org/2000/svg">
<circle cx="22.5373" cy="22.5373" r="22.5373" fill="#EC4989" fill-opacity="0.2"/>
<circle cx="22.5373" cy="22.5373" r="18.8452" fill="white"/>
<g clip-path="url(#clip0_78_809)">
<path fill-rule="evenodd" clip-rule="evenodd" d="M28.0807 30.7638C27.9796 30.1656 27.451 27.2539 26.1494 23.6798C29.3523 23.1677 32.1264 24.0458 32.3313 24.1128C31.8901 26.877 30.3071 29.2602 28.0807 30.7638ZM22.5379 32.4573C20.1367 32.4573 17.9349 31.6037 16.218 30.1834C16.3491 30.2899 16.4406 30.3568 16.4406 30.3568C16.4406 30.3568 18.342 26.2105 24.2248 24.1605C24.2467 24.1524 24.2699 24.1469 24.2918 24.1401C25.6877 27.7661 26.2627 30.8034 26.4102 31.6707C25.2205 32.176 23.9107 32.4573 22.5379 32.4573ZM12.6176 22.5367C12.6176 22.4315 12.623 22.3278 12.6257 22.224C12.8019 22.2281 17.7027 22.3387 22.8098 20.8104C23.0939 21.3663 23.3657 21.9331 23.6143 22.4971C23.4831 22.5326 23.3534 22.5722 23.2236 22.6159C17.8707 24.3449 15.1554 29.1605 15.1554 29.1605C15.1554 29.1605 15.1595 29.1646 15.1595 29.1659C13.5791 27.4082 12.6176 25.0851 12.6176 22.5367ZM18.3051 13.568C18.4376 13.7442 20.272 16.2312 21.9889 19.2822C17.226 20.5482 13.0915 20.4977 12.8306 20.4936C13.474 17.4207 15.5378 14.8736 18.3051 13.568ZM20.1613 12.907C20.1613 12.9084 20.16 12.9097 20.16 12.9097C20.16 12.9097 20.1477 12.9125 20.1299 12.9152C20.1408 12.9125 20.1504 12.9111 20.1613 12.907ZM29.0887 15.0949C29.0642 15.1318 27.6518 17.2828 23.9066 18.6854C22.2115 15.5702 20.3484 13.0955 20.1996 12.8988C20.9494 12.7172 21.7321 12.6188 22.5379 12.6188C25.0484 12.6188 27.3418 13.5557 29.0887 15.0949ZM32.4543 22.4384C32.3109 22.407 28.9535 21.6845 25.5456 22.1133C25.4746 21.944 25.4049 21.7733 25.3312 21.6026C25.1249 21.1164 24.9023 20.6356 24.6715 20.1631C28.5888 18.5638 30.1787 16.2653 30.1978 16.238C31.5883 17.9274 32.4311 20.0852 32.4543 22.4384ZM33.9171 20.2C33.7641 19.4543 33.5347 18.7182 33.2383 18.0162C32.9487 17.3278 32.5867 16.6641 32.1674 16.0441C31.7535 15.4295 31.2755 14.8504 30.751 14.326C30.2251 13.8002 29.6474 13.3235 29.0313 12.9084C28.4112 12.4877 27.7474 12.1285 27.059 11.8363C26.357 11.5413 25.6221 11.3118 24.8763 11.1602C24.1114 11.0032 23.3247 10.9226 22.5379 10.9226C21.7498 10.9226 20.9631 11.0032 20.1982 11.1602C19.4524 11.3118 18.7176 11.5413 18.0155 11.8363C17.3271 12.1285 16.6633 12.4877 16.0418 12.9084C15.4272 13.3235 14.8494 13.8002 14.3235 14.326C13.799 14.8504 13.3224 15.4295 12.9071 16.0441C12.4878 16.6641 12.1258 17.3278 11.8363 18.0162C11.5385 18.7182 11.3104 19.4543 11.1574 20.2C11.0017 20.9634 10.9225 21.75 10.9225 22.5367C10.9225 23.3261 11.0017 24.1128 11.1574 24.8776C11.3104 25.6232 11.5385 26.358 11.8363 27.0586C12.1258 27.7469 12.4878 28.4134 12.9071 29.0334C13.3224 29.648 13.799 30.2244 14.3235 30.7515C14.8494 31.276 15.4272 31.7512 16.0418 32.1678C16.6633 32.5871 17.3271 32.9476 18.0155 33.2385C18.7176 33.5362 19.4524 33.7629 20.1982 33.9145C20.9631 34.073 21.7498 34.1522 22.5379 34.1522C23.3247 34.1522 24.1114 34.073 24.8763 33.9145C25.6221 33.7629 26.357 33.5362 27.059 33.2385C27.7474 32.9476 28.4112 32.5871 29.0313 32.1678C29.6474 31.7512 30.2251 31.276 30.751 30.7515C31.2755 30.2244 31.7535 29.648 32.1674 29.0334C32.5867 28.4134 32.9487 27.7469 33.2383 27.0586C33.5347 26.358 33.7641 25.6232 33.9171 24.8776C34.0728 24.1128 34.1521 23.3261 34.1521 22.5367C34.1521 21.75 34.0728 20.9634 33.9171 20.2Z" fill="#EC4989"/>
</g>
<defs>
<clipPath id="clip0_78_809">
<rect width="23.2296" height="23.2296" fill="white" transform="translate(10.9225 10.9226)"/>
</clipPath>
</defs>
</svg>
