<svg width="18" height="18" viewBox="0 0 18 18" fill="none" xmlns="http://www.w3.org/2000/svg">
<path d="M4.14995 17.55H13.8399C15.8399 17.55 17.4799 15.91 17.4799 13.91V4.21996C17.4799 2.21996 15.8399 0.579956 13.8399 0.579956H4.14995C2.14995 0.579956 0.509949 2.21996 0.509949 4.21996V13.91C0.509949 15.91 2.14995 17.55 4.14995 17.55Z" fill="#272727"/>
<path d="M6.84995 15.52C8.03995 15.52 8.99995 14.56 8.99995 13.37V11.22H6.84995C5.65995 11.22 4.69995 12.18 4.69995 13.37C4.69995 14.56 5.65995 15.52 6.84995 15.52Z" fill="#0ACF83"/>
<path d="M4.69995 9.06003C4.69995 7.87003 5.65995 6.91003 6.84995 6.91003H8.99995V11.21H6.84995C5.65995 11.21 4.69995 10.25 4.69995 9.06003Z" fill="#A259FF"/>
<path d="M4.69995 4.75999C4.69995 3.56999 5.65995 2.60999 6.84995 2.60999H8.99995V6.90999H6.84995C5.65995 6.90999 4.69995 5.94999 4.69995 4.75999Z" fill="#F24E1E"/>
<path d="M8.99994 2.60999H11.1499C12.3399 2.60999 13.2999 3.56999 13.2999 4.75999C13.2999 5.94999 12.3399 6.90999 11.1499 6.90999H8.99994V2.60999Z" fill="#FF7262"/>
<path d="M13.2999 9.06003C13.2999 10.25 12.3399 11.21 11.1499 11.21C9.95994 11.21 8.99994 10.25 8.99994 9.06003C8.99994 7.87003 9.95994 6.91003 11.1499 6.91003C12.3399 6.91003 13.2999 7.88003 13.2999 9.06003Z" fill="#1ABCFE"/>
</svg>
