<svg width="82" height="60" viewBox="0 0 82 60" fill="none" xmlns="http://www.w3.org/2000/svg">
<g id="Group">
<path id="Vector" d="M4.98874 43.17C1.6229 43.17 -0.852002 39.8553 0.276547 36.6985C2.94943 29.2799 10.0771 23.9527 18.4521 23.9527H37.3603V14.5807C37.3603 11.4239 34.8062 8.87866 31.6383 8.87866H10.8295V16.6327H6.86965C4.13737 16.6327 1.91988 14.4229 1.91988 11.7001V4.93259C1.91988 2.2098 4.13737 0 6.86965 0H31.6383C39.7164 0 46.2897 6.53075 46.2897 14.6005V27.9185C46.2897 30.6413 44.0722 32.8511 41.3399 32.8511H18.4521C13.6211 32.8511 9.54254 36.1658 8.39419 40.6446C7.99821 42.1441 6.57267 43.17 4.98874 43.17Z" fill="#FFFFFF"/>
<path id="Vector_2" d="M67.2373 16.179H53.6947V25.0774H67.2373C70.4051 25.0774 72.9592 27.6226 72.9592 30.7794V40.1514H54.0511C45.6958 40.1514 38.5484 45.4785 35.8755 52.8972C34.7271 56.054 37.2218 59.3687 40.5877 59.3687C42.1716 59.3687 43.5971 58.3427 43.9931 56.8235C45.1415 52.3447 49.2201 49.03 54.0511 49.03H76.919C79.6513 49.03 81.8688 46.8202 81.8688 44.0974V30.7794C81.8688 22.7097 75.3153 16.179 67.2373 16.179Z" fill="#FFFFFF"/>
</g>
</svg>
