<svg width="18" height="18" viewBox="0 0 18 18" fill="none" xmlns="http://www.w3.org/2000/svg">
<path d="M4.14995 17.49H13.8399C15.8399 17.49 17.4799 15.85 17.4799 13.85V4.16002C17.4799 2.16002 15.8399 0.52002 13.8399 0.52002H4.14995C2.14995 0.52002 0.509949 2.16002 0.509949 4.16002V13.85C0.509949 15.85 2.14995 17.49 4.14995 17.49Z" fill="#330000"/>
<path d="M5.02994 12.36H6.49994C6.53994 12.36 6.56994 12.33 6.57994 12.3L7.00994 10.75H8.67994L9.14994 12.3C9.15994 12.34 9.19994 12.36 9.22994 12.36H10.7599C10.8099 12.36 10.8499 12.32 10.8499 12.27C10.8499 12.26 10.8499 12.24 10.8399 12.23L8.88994 5.96002C8.87994 5.92002 8.83994 5.90002 8.80994 5.90002H6.94994C6.90994 5.90002 6.87994 5.93002 6.86994 5.96002L4.94994 12.24C4.93994 12.27 4.94994 12.3 4.95994 12.32C4.97994 12.35 5.00994 12.36 5.02994 12.36ZM8.42994 9.51003H7.26994L7.60994 8.29003C7.66994 8.07003 7.72994 7.81002 7.78994 7.56002C7.79994 7.50002 7.81994 7.45002 7.82994 7.39002C7.90994 7.69002 7.98994 8.02003 8.06994 8.29003L8.42994 9.51003Z" fill="#FF9A00"/>
<path d="M11.4999 7.80005C11.4499 7.80005 11.4099 7.84005 11.4099 7.89005V12.2701C11.4099 12.3201 11.4499 12.3601 11.4999 12.3601H12.9199C12.9699 12.3601 13.0099 12.3201 13.0099 12.2701V7.89005C13.0099 7.84005 12.9699 7.80005 12.9199 7.80005H11.4999Z" fill="#FF9A00"/>
<path d="M12.1999 7.24001C12.6899 7.24001 13.0499 6.91001 13.0499 6.44001C13.0399 5.97001 12.6899 5.64001 12.2099 5.64001C11.9599 5.64001 11.7399 5.73001 11.5899 5.88001C11.4499 6.03001 11.3699 6.23001 11.3799 6.44001C11.3799 6.65001 11.4499 6.85001 11.5899 6.99001C11.7399 7.16001 11.9599 7.24001 12.1999 7.24001Z" fill="#FF9A00"/>
</svg>
