<svg width="18" height="18" viewBox="0 0 18 18" fill="none" xmlns="http://www.w3.org/2000/svg">
<path d="M16.7604 12.968L14.2564 7.11996C13.4084 5.13595 11.8484 5.05595 10.8004 6.94396L9.28836 9.67199C8.52035 11.056 7.08837 11.176 6.09637 9.93599L5.92037 9.71199C4.88836 8.41598 3.43236 8.57598 2.68835 10.056L1.31235 12.816C0.344344 14.736 1.74435 17 3.88836 17H14.0964C16.1764 17 17.5764 14.88 16.7604 12.968Z" stroke="#00AEFF" stroke-width="2" stroke-linecap="round" stroke-linejoin="round"/>
<path d="M4.99242 5.80002C6.3179 5.80002 7.39243 4.7255 7.39243 3.40001C7.39243 2.07452 6.3179 1 4.99242 1C3.66693 1 2.59241 2.07452 2.59241 3.40001C2.59241 4.7255 3.66693 5.80002 4.99242 5.80002Z" stroke="#00AEFF" stroke-width="2" stroke-linecap="round" stroke-linejoin="round"/>
</svg>
