<svg width="46" height="46" viewBox="0 0 46 46" fill="none" xmlns="http://www.w3.org/2000/svg">
<circle cx="22.5373" cy="22.5373" r="22.5373" fill="#007EBB" fill-opacity="0.2"/>
<circle cx="22.7745" cy="22.7744" r="18.8452" fill="white"/>
<g clip-path="url(#clip0_78_800)">
<path fill-rule="evenodd" clip-rule="evenodd" d="M32.7444 31.8216H28.2574V25.3336C28.2574 23.6354 27.5556 22.4761 26.0122 22.4761C24.8317 22.4761 24.1752 23.2584 23.8696 24.0124C23.755 24.283 23.7729 24.66 23.7729 25.037V31.8216H19.3278C19.3278 31.8216 19.3851 20.3288 19.3278 19.2841H23.7729V21.2518C24.0355 20.3914 25.456 19.1635 27.7227 19.1635C30.5349 19.1635 32.7444 20.967 32.7444 24.8503V31.8216ZM14.8325 17.7159H14.8039C13.3715 17.7159 12.4429 16.7574 12.4429 15.5426C12.4429 14.3041 13.399 13.3657 14.86 13.3657C16.3198 13.3657 17.2174 14.3017 17.2461 15.539C17.2461 16.7539 16.3198 17.7159 14.8325 17.7159ZM12.9549 19.2841H16.9119V31.8216H12.9549V19.2841Z" fill="#007EBB"/>
</g>
<defs>
<clipPath id="clip0_78_800">
<rect width="20.3015" height="20.3015" fill="white" transform="translate(12.4429 12.4429)"/>
</clipPath>
</defs>
</svg>
