<svg width="122" height="59" viewBox="0 0 122 59" fill="none" xmlns="http://www.w3.org/2000/svg">
<g id="name_and_logo-02-02 1">
<g id="Group">
<g id="Group_2">
<path id="Vector" d="M92.31 58.09C108.1 58.09 120.9 45.2898 120.9 29.5C120.9 13.7102 108.1 0.910004 92.31 0.910004C76.5201 0.910004 63.72 13.7102 63.72 29.5C63.72 45.2898 76.5201 58.09 92.31 58.09Z" fill="url(#paint0_linear_12_2)"/>
<g id="Group_3">
<path id="Vector_2" d="M74.15 36.34C72.45 36.34 71.2 34.66 71.77 33.06C73.12 29.3 76.72 26.6 80.95 26.6H90.5V21.85C90.5 20.25 89.21 18.96 87.61 18.96H77.1V22.89H75.1C73.72 22.89 72.6 21.77 72.6 20.39V16.96C72.6 15.58 73.72 14.46 75.1 14.46H87.61C91.69 14.46 95.01 17.77 95.01 21.86V28.61C95.01 29.99 93.89 31.11 92.51 31.11H80.95C78.51 31.11 76.45 32.79 75.87 35.06C75.67 35.82 74.95 36.34 74.15 36.34Z" fill="white"/>
<path id="Vector_3" d="M105.59 22.66H98.75V27.17H105.59C107.19 27.17 108.48 28.46 108.48 30.06V34.81H98.93C94.71 34.81 91.1 37.51 89.75 41.27C89.17 42.87 90.43 44.55 92.13 44.55C92.93 44.55 93.65 44.03 93.85 43.26C94.43 40.99 96.49 39.31 98.93 39.31H110.48C111.86 39.31 112.98 38.19 112.98 36.81V30.06C112.98 25.97 109.67 22.66 105.59 22.66Z" fill="white"/>
</g>
</g>
<path id="Vector_4" d="M6.86996 20.85C7.32996 21.11 7.84996 21.1 8.30996 20.85C8.53996 20.72 8.71996 20.54 8.83996 20.32C8.96996 20.09 9.02996 19.86 9.02996 19.61C9.02996 19.36 8.95996 19.11 8.82996 18.88C8.69996 18.65 8.51996 18.47 8.28996 18.35C8.05996 18.23 7.81996 18.17 7.57996 18.17C7.33996 18.17 7.10996 18.23 6.86996 18.36C6.63996 18.48 6.46996 18.66 6.33996 18.89C6.20996 19.12 6.14996 19.37 6.14996 19.62C6.14996 19.86 6.20996 20.1 6.33996 20.33C6.45996 20.54 6.63996 20.72 6.86996 20.85Z" fill="black"/>
<path id="Vector_5" d="M20.77 24.37C20.59 24.27 20.4 24.22 20.22 24.22C20.03 24.22 19.84 24.27 19.66 24.36C19.48 24.45 19.35 24.59 19.24 24.77C19.14 24.95 19.09 25.14 19.09 25.34C19.09 25.53 19.14 25.72 19.24 25.89C19.34 26.07 19.47 26.2 19.65 26.3C20 26.49 20.4 26.5 20.78 26.3C20.96 26.2 21.1 26.06 21.2 25.89C21.3 25.71 21.35 25.52 21.35 25.34C21.35 25.14 21.3 24.95 21.2 24.77C21.09 24.6 20.95 24.46 20.77 24.37Z" fill="black"/>
<path id="Vector_6" d="M17.9 26.32C18.08 26.22 18.22 26.08 18.32 25.91C18.42 25.73 18.47 25.54 18.47 25.36C18.47 25.16 18.42 24.97 18.32 24.79C18.22 24.61 18.08 24.47 17.9 24.38C17.72 24.28 17.53 24.23 17.35 24.23C17.16 24.23 16.97 24.28 16.79 24.37C16.61 24.46 16.48 24.6 16.37 24.78C16.27 24.96 16.22 25.15 16.22 25.35C16.22 25.54 16.27 25.73 16.37 25.9C16.47 26.08 16.6 26.21 16.78 26.31C17.13 26.51 17.53 26.52 17.9 26.32Z" fill="black"/>
<path id="Vector_7" d="M5.68998 26.82H9.33998C10.52 26.82 11.61 26.42 12.58 25.62C13.43 24.66 13.91 23.86 13.97 23.24L13.98 23.13H48.47C48.9 23.13 49.17 22.85 49.29 22.29V19.65C49.29 19.27 49.24 18.81 49.13 18.29C48.61 16.7 47.41 15.92 45.48 15.92H39.94C39.39 15.92 39.11 16.21 39.04 16.83V17.72C41.6 17.72 43.45 17.75 44.54 17.8C46.21 17.8 47.09 18.14 47.24 18.84V21.25H37.2V18.38C37.09 17.73 36.82 17.4 36.38 17.4H36.07C35.59 17.58 35.35 17.92 35.35 18.42V21.25H22.42V18.34C22.32 17.68 22.05 17.36 21.6 17.36H21.4L21.17 17.4C20.78 17.58 20.58 17.93 20.58 18.47V21.26H14.26V16.05H13.1C12.62 16.23 12.38 16.57 12.38 17.07V21.91C12.38 22.21 12.34 22.51 12.25 22.81C11.65 24.26 10.56 24.99 9.00998 24.99H6.34998C5.93998 24.99 5.55998 24.93 5.19998 24.82C3.66998 24.26 2.89998 23.21 2.89998 21.71V16.05H1.95998C1.38998 16.18 1.09998 16.45 1.09998 16.87V21.79C1.09998 22.5 1.25998 23.24 1.57998 24C2.66998 25.86 4.05998 26.82 5.68998 26.82Z" fill="black"/>
<path id="Vector_8" d="M16.8 38.06C16.62 37.96 16.43 37.92 16.24 37.92C16.06 37.92 15.87 37.97 15.69 38.06C15.51 38.16 15.37 38.29 15.27 38.47C15.17 38.65 15.12 38.84 15.12 39.04C15.12 39.23 15.17 39.42 15.27 39.59C15.37 39.77 15.5 39.9 15.68 40C16.04 40.2 16.45 40.19 16.8 40C16.98 39.9 17.11 39.77 17.21 39.59C17.31 39.41 17.36 39.22 17.36 39.04C17.36 38.84 17.31 38.65 17.21 38.47C17.12 38.3 16.98 38.16 16.8 38.06Z" fill="black"/>
<path id="Vector_9" d="M17.22 35.61C17.12 35.43 16.98 35.29 16.8 35.2C16.62 35.1 16.43 35.06 16.24 35.06C16.06 35.06 15.87 35.11 15.69 35.2C15.51 35.3 15.37 35.43 15.27 35.61C15.17 35.79 15.12 35.98 15.12 36.18C15.12 36.37 15.17 36.56 15.27 36.73C15.37 36.91 15.5 37.04 15.68 37.14C16.04 37.34 16.45 37.33 16.8 37.14C16.98 37.04 17.11 36.91 17.21 36.73C17.31 36.55 17.36 36.36 17.36 36.18C17.37 35.98 17.32 35.79 17.22 35.61Z" fill="black"/>
<path id="Vector_10" d="M49.3 39.65C49.3 39.27 49.25 38.81 49.14 38.29C48.62 36.7 47.42 35.92 45.49 35.92H39.95C39.4 35.92 39.12 36.21 39.05 36.83V37.72C41.61 37.72 43.46 37.75 44.55 37.8C46.22 37.8 47.1 38.14 47.25 38.84V41.25H42.83H42.7H37.81L37.84 41.1C37.89 40.83 37.92 40.61 37.92 40.43V40.27C37.92 39.92 37.8 39.45 37.56 38.88C37.22 38.42 35.55 36.42 32.62 32.97L32.59 32.93V32.76L32.67 32.73C35.74 31.58 38.06 30.74 39.55 30.22C39.38 29.25 39.03 28.75 38.53 28.75H38.28C38.12 28.76 36.84 29.17 31.64 31.12C30.66 31.37 30.16 31.73 30.16 32.19V32.35L30.19 32.58L35.01 38.38C35.83 39.2 36.23 39.85 36.23 40.35V40.43C36.23 40.85 36 41.13 35.55 41.25H35.52H34.41H32.72H30.46L30.53 41.08C30.76 40.51 30.88 40 30.88 39.57V39.4C30.88 39.16 30.84 38.86 30.76 38.48C30.06 36.7 28.93 35.83 27.31 35.83H27.06C26.51 35.83 25.94 35.99 25.36 36.31C24.15 37.14 23.54 38.18 23.54 39.4C23.54 40.01 23.67 40.57 23.92 41.07L24.01 41.25H20.94V38.34C20.84 37.68 20.57 37.36 20.12 37.36H19.91L19.68 37.4C19.29 37.58 19.09 37.93 19.09 38.47V41.26H8.43998C8.33998 41.26 8.25998 41.28 8.16998 41.33C7.73998 41.48 7.53998 41.87 7.53998 42.53V43.14H9.29998C10.77 43.14 11.6 43.36 11.83 43.82L11.86 43.88L11.83 43.94C11.81 43.97 11.81 44 11.81 44.04V44.1L11.77 44.14C11.11 44.7 10.21 44.99 9.09998 44.99H6.67998C5.88998 44.99 5.21998 44.86 4.69998 44.61C3.53998 44.14 2.94998 43.05 2.94998 41.38V36.05H1.91998C1.48998 36.05 1.21998 36.33 1.09998 36.89V41.09C1.09998 41.95 1.23998 42.78 1.49998 43.55C2.40998 45.72 3.87998 46.83 5.84998 46.83H9.41998C9.87998 46.83 10.29 46.78 10.66 46.67C12.67 46.03 13.65 44.98 13.65 43.47V43.14H32.73H34.42H42.7H42.83H48.48C48.91 43.14 49.18 42.86 49.3 42.3V39.65ZM29 39.87C28.71 40.69 28.26 41.15 27.66 41.25H26.92H26.89C25.9 40.98 25.39 40.38 25.39 39.49C25.39 38.55 25.93 37.94 27 37.69H27.4C27.48 37.69 27.61 37.72 27.81 37.78C28.63 38.12 29.05 38.7 29.05 39.5L29 39.87Z" fill="black"/>
</g>
</g>
<defs>
<linearGradient id="paint0_linear_12_2" x1="63.7132" y1="29.5" x2="120.899" y2="29.5" gradientUnits="userSpaceOnUse">
<stop stop-color="#AB06D4"/>
<stop offset="1" stop-color="#490F8A"/>
</linearGradient>
</defs>
</svg>
