<svg width="120" height="59" viewBox="0 0 120 59" fill="none" xmlns="http://www.w3.org/2000/svg">
<path d="M91.31 58.0899C107.1 58.0899 119.9 45.2897 119.9 29.4999C119.9 13.7101 107.1 0.909912 91.31 0.909912C75.5201 0.909912 62.72 13.7101 62.72 29.4999C62.72 45.2897 75.5201 58.0899 91.31 58.0899Z" fill="url(#paint0_linear_78_1254)"/>
<path d="M73.15 36.34C71.45 36.34 70.2 34.66 70.77 33.06C72.12 29.3 75.72 26.6 79.95 26.6H89.5V21.85C89.5 20.25 88.21 18.96 86.61 18.96H76.1V22.89H74.1C72.72 22.89 71.6 21.77 71.6 20.39V16.96C71.6 15.58 72.72 14.46 74.1 14.46H86.61C90.69 14.46 94.01 17.77 94.01 21.86V28.61C94.01 29.99 92.89 31.11 91.51 31.11H79.95C77.51 31.11 75.45 32.79 74.87 35.06C74.67 35.82 73.95 36.34 73.15 36.34Z" fill="white"/>
<path d="M104.59 22.6599H97.75V27.1699H104.59C106.19 27.1699 107.48 28.4599 107.48 30.0599V34.8099H97.93C93.71 34.8099 90.1 37.5099 88.75 41.2699C88.17 42.8699 89.43 44.5499 91.13 44.5499C91.93 44.5499 92.65 44.0299 92.85 43.2599C93.43 40.9899 95.49 39.3099 97.93 39.3099H109.48C110.86 39.3099 111.98 38.1899 111.98 36.8099V30.0599C111.98 25.9699 108.67 22.6599 104.59 22.6599Z" fill="white"/>
<path d="M5.86996 20.8499C6.32996 21.1099 6.84996 21.0999 7.30996 20.8499C7.53996 20.7199 7.71996 20.5399 7.83996 20.3199C7.96996 20.0899 8.02996 19.8599 8.02996 19.6099C8.02996 19.3599 7.95996 19.1099 7.82996 18.8799C7.69996 18.6499 7.51996 18.4699 7.28996 18.3499C7.05996 18.2299 6.81996 18.1699 6.57996 18.1699C6.33996 18.1699 6.10996 18.2299 5.86996 18.3599C5.63996 18.4799 5.46996 18.6599 5.33996 18.8899C5.20996 19.1199 5.14996 19.3699 5.14996 19.6199C5.14996 19.8599 5.20996 20.0999 5.33996 20.3299C5.45996 20.5399 5.63996 20.7199 5.86996 20.8499Z" fill="black"/>
<path d="M19.77 24.37C19.59 24.27 19.4 24.22 19.22 24.22C19.03 24.22 18.84 24.27 18.66 24.36C18.48 24.45 18.35 24.59 18.24 24.77C18.14 24.95 18.09 25.14 18.09 25.34C18.09 25.53 18.14 25.72 18.24 25.89C18.34 26.07 18.47 26.2 18.65 26.3C19 26.49 19.4 26.5 19.78 26.3C19.96 26.2 20.1 26.06 20.2 25.89C20.3 25.71 20.35 25.52 20.35 25.34C20.35 25.14 20.3 24.95 20.2 24.77C20.09 24.6 19.95 24.46 19.77 24.37Z" fill="black"/>
<path d="M16.9 26.32C17.08 26.22 17.22 26.08 17.32 25.91C17.42 25.73 17.47 25.54 17.47 25.36C17.47 25.16 17.42 24.97 17.32 24.79C17.22 24.61 17.08 24.47 16.9 24.38C16.72 24.28 16.53 24.23 16.35 24.23C16.16 24.23 15.97 24.28 15.79 24.37C15.61 24.46 15.48 24.6 15.37 24.78C15.27 24.96 15.22 25.15 15.22 25.35C15.22 25.54 15.27 25.73 15.37 25.9C15.47 26.08 15.6 26.21 15.78 26.31C16.13 26.51 16.53 26.52 16.9 26.32Z" fill="black"/>
<path d="M4.68998 26.8199H8.33998C9.51998 26.8199 10.61 26.4199 11.58 25.6199C12.43 24.6599 12.91 23.8599 12.97 23.2399L12.98 23.1299H47.47C47.9 23.1299 48.17 22.8499 48.29 22.2899V19.6499C48.29 19.2699 48.24 18.8099 48.13 18.2899C47.61 16.6999 46.41 15.9199 44.48 15.9199H38.94C38.39 15.9199 38.11 16.2099 38.04 16.8299V17.7199C40.6 17.7199 42.45 17.7499 43.54 17.7999C45.21 17.7999 46.09 18.1399 46.24 18.8399V21.2499H36.2V18.3799C36.09 17.7299 35.82 17.3999 35.38 17.3999H35.07C34.59 17.5799 34.35 17.9199 34.35 18.4199V21.2499H21.42V18.3399C21.32 17.6799 21.05 17.3599 20.6 17.3599H20.4L20.17 17.3999C19.78 17.5799 19.58 17.9299 19.58 18.4699V21.2599H13.26V16.0499H12.1C11.62 16.2299 11.38 16.5699 11.38 17.0699V21.9099C11.38 22.2099 11.34 22.5099 11.25 22.8099C10.65 24.2599 9.55998 24.9899 8.00998 24.9899H5.34998C4.93998 24.9899 4.55998 24.9299 4.19998 24.8199C2.66998 24.2599 1.89998 23.2099 1.89998 21.7099V16.0499H0.959976C0.389976 16.1799 0.0999756 16.4499 0.0999756 16.8699V21.7899C0.0999756 22.4999 0.259976 23.2399 0.579976 23.9999C1.66998 25.8599 3.05998 26.8199 4.68998 26.8199Z" fill="black"/>
<path d="M15.8 38.0599C15.62 37.9599 15.43 37.9199 15.24 37.9199C15.06 37.9199 14.87 37.9699 14.69 38.0599C14.51 38.1599 14.37 38.2899 14.27 38.4699C14.17 38.6499 14.12 38.8399 14.12 39.0399C14.12 39.2299 14.17 39.4199 14.27 39.5899C14.37 39.7699 14.5 39.8999 14.68 39.9999C15.04 40.1999 15.45 40.1899 15.8 39.9999C15.98 39.8999 16.11 39.7699 16.21 39.5899C16.31 39.4099 16.36 39.2199 16.36 39.0399C16.36 38.8399 16.31 38.6499 16.21 38.4699C16.12 38.2999 15.98 38.1599 15.8 38.0599Z" fill="black"/>
<path d="M16.22 35.6098C16.12 35.4298 15.98 35.2898 15.8 35.1998C15.62 35.0998 15.43 35.0598 15.24 35.0598C15.06 35.0598 14.87 35.1098 14.69 35.1998C14.51 35.2998 14.37 35.4298 14.27 35.6098C14.17 35.7898 14.12 35.9798 14.12 36.1798C14.12 36.3698 14.17 36.5598 14.27 36.7298C14.37 36.9098 14.5 37.0398 14.68 37.1398C15.04 37.3398 15.45 37.3298 15.8 37.1398C15.98 37.0398 16.11 36.9098 16.21 36.7298C16.31 36.5498 16.36 36.3598 16.36 36.1798C16.37 35.9798 16.32 35.7898 16.22 35.6098Z" fill="black"/>
<path d="M48.3 39.65C48.3 39.27 48.25 38.81 48.14 38.29C47.62 36.7 46.42 35.92 44.49 35.92H38.95C38.4 35.92 38.12 36.21 38.05 36.83V37.72C40.61 37.72 42.46 37.75 43.55 37.8C45.22 37.8 46.1 38.14 46.25 38.84V41.25H41.83H41.7H36.81L36.84 41.1C36.89 40.83 36.92 40.61 36.92 40.43V40.27C36.92 39.92 36.8 39.45 36.56 38.88C36.22 38.42 34.55 36.42 31.62 32.97L31.59 32.93V32.76L31.67 32.73C34.74 31.58 37.06 30.74 38.55 30.22C38.38 29.25 38.03 28.75 37.53 28.75H37.28C37.12 28.76 35.84 29.17 30.64 31.12C29.66 31.37 29.16 31.73 29.16 32.19V32.35L29.19 32.58L34.01 38.38C34.83 39.2 35.23 39.85 35.23 40.35V40.43C35.23 40.85 35 41.13 34.55 41.25H34.52H33.41H31.72H29.46L29.53 41.08C29.76 40.51 29.88 40 29.88 39.57V39.4C29.88 39.16 29.84 38.86 29.76 38.48C29.06 36.7 27.93 35.83 26.31 35.83H26.06C25.51 35.83 24.94 35.99 24.36 36.31C23.15 37.14 22.54 38.18 22.54 39.4C22.54 40.01 22.67 40.57 22.92 41.07L23.01 41.25H19.94V38.34C19.84 37.68 19.57 37.36 19.12 37.36H18.91L18.68 37.4C18.29 37.58 18.09 37.93 18.09 38.47V41.26H7.43998C7.33998 41.26 7.25998 41.28 7.16998 41.33C6.73998 41.48 6.53998 41.87 6.53998 42.53V43.14H8.29998C9.76998 43.14 10.6 43.36 10.83 43.82L10.86 43.88L10.83 43.94C10.81 43.97 10.81 44 10.81 44.04V44.1L10.77 44.14C10.11 44.7 9.20998 44.99 8.09998 44.99H5.67998C4.88998 44.99 4.21998 44.86 3.69998 44.61C2.53998 44.14 1.94998 43.05 1.94998 41.38V36.05H0.919976C0.489976 36.05 0.219976 36.33 0.0999756 36.89V41.09C0.0999756 41.95 0.239976 42.78 0.499976 43.55C1.40998 45.72 2.87998 46.83 4.84998 46.83H8.41998C8.87998 46.83 9.28998 46.78 9.65998 46.67C11.67 46.03 12.65 44.98 12.65 43.47V43.14H31.73H33.42H41.7H41.83H47.48C47.91 43.14 48.18 42.86 48.3 42.3V39.65ZM28 39.87C27.71 40.69 27.26 41.15 26.66 41.25H25.92H25.89C24.9 40.98 24.39 40.38 24.39 39.49C24.39 38.55 24.93 37.94 26 37.69H26.4C26.48 37.69 26.61 37.72 26.81 37.78C27.63 38.12 28.05 38.7 28.05 39.5L28 39.87Z" fill="black"/>
<defs>
<linearGradient id="paint0_linear_78_1254" x1="62.7132" y1="29.4999" x2="119.899" y2="29.4999" gradientUnits="userSpaceOnUse">
<stop stop-color="#00C9FF"/>
<stop offset="1" stop-color="#92FE9D"/>
</linearGradient>
</defs>
</svg>
