<svg width="53" height="53" viewBox="0 0 53 53" fill="none" xmlns="http://www.w3.org/2000/svg">
<path d="M18 20.1027C18 19.0614 18.8395 18.2173 19.875 18.2173L23.625 18.2173C24.6605 18.2173 25.5 19.0614 25.5 20.1027V23.8736C25.5 24.9149 24.6605 25.759 23.625 25.759H19.875C18.8395 25.759 18 24.9149 18 23.8736L18 20.1027ZM28 20.1027C28 19.0614 28.8395 18.2173 29.875 18.2173L33.625 18.2173C34.6605 18.2173 35.5 19.0614 35.5 20.1027V23.8736C35.5 24.9149 34.6605 25.759 33.625 25.759H29.875C28.8395 25.759 28 24.9149 28 23.8736V20.1027ZM18 30.1584C18 29.1171 18.8395 28.273 19.875 28.273H23.625C24.6605 28.273 25.5 29.1171 25.5 30.1584V33.9293C25.5 34.9706 24.6605 35.8147 23.625 35.8147H19.875C18.8395 35.8147 18 34.9706 18 33.9293L18 30.1584ZM28 30.1584C28 29.1171 28.8395 28.273 29.875 28.273H33.625C34.6605 28.273 35.5 29.1171 35.5 30.1584V33.9293C35.5 34.9706 34.6605 35.8147 33.625 35.8147H29.875C28.8395 35.8147 28 34.9706 28 33.9293V30.1584Z" fill="#00AEFF"/>
<rect x="0.5" y="0.5" width="52" height="52" rx="12.5" stroke="#A3A3A3"/>
</svg>
