<svg width="29" height="31" viewBox="0 0 29 31" fill="none" xmlns="http://www.w3.org/2000/svg">
<g id="Group">
<path id="Vector" d="M20.9634 10.2614L14.4793 13.5349L7.99507 10.2614L0 26.3144L4.97331 25.8108L7.55439 30.0916L14.4793 16.3049L21.4041 30.0916L23.9852 25.8108L28.9585 26.3144L20.9634 10.2614Z" fill="#4675FF"/>
<path id="Vector_2" d="M14.479 21.1523C20.32 21.1523 25.0551 16.4172 25.0551 10.5761C25.0551 4.7351 20.32 0 14.479 0C8.63793 0 3.90283 4.7351 3.90283 10.5761C3.90283 16.4172 8.63793 21.1523 14.479 21.1523Z" fill="#FFC54D"/>
<path id="Vector_3" d="M14.4793 18.886C19.0687 18.886 22.7891 15.1655 22.7891 10.5761C22.7891 5.98673 19.0687 2.2663 14.4793 2.2663C9.88987 2.2663 6.16943 5.98673 6.16943 10.5761C6.16943 15.1655 9.88987 18.886 14.4793 18.886Z" fill="#E8B04B"/>
</g>
</svg>
