<svg width="18" height="18" viewBox="0 0 18 18" fill="none" xmlns="http://www.w3.org/2000/svg">
<path d="M4.14995 17.49H13.8399C15.8399 17.49 17.4799 15.85 17.4799 13.85V4.16002C17.4799 2.16002 15.8399 0.52002 13.8399 0.52002H4.14995C2.14995 0.52002 0.509949 2.16002 0.509949 4.16002V13.85C0.509949 15.85 2.14995 17.49 4.14995 17.49Z" fill="#001E36"/>
<path d="M6.25996 12.18V9.99002C6.37996 10 6.50996 10.01 6.65996 10.01C7.57996 10.01 8.31996 9.77002 8.79996 9.31002C9.19996 8.93002 9.41996 8.37002 9.41996 7.73002C9.41996 7.10002 9.15996 6.54003 8.69996 6.18003C8.24996 5.82003 7.58996 5.65002 6.68996 5.65002C5.90996 5.65002 5.23996 5.70002 4.71996 5.78002C4.67996 5.79002 4.64996 5.82002 4.64996 5.87002V12.18C4.64996 12.23 4.68996 12.27 4.73996 12.27H6.16996C6.21996 12.27 6.25996 12.23 6.25996 12.18ZM6.25996 8.69003V6.95003C6.34996 6.93003 6.50996 6.91002 6.76996 6.91002C7.42996 6.91002 7.80996 7.22003 7.80996 7.76003C7.80996 8.36002 7.37996 8.72002 6.65996 8.72002C6.47996 8.72002 6.35996 8.71003 6.25996 8.69003Z" fill="#31A8FF"/>
<path d="M12.02 9.25007C11.43 9.04007 11.33 8.94007 11.33 8.80007C11.33 8.55007 11.62 8.51007 11.79 8.51007C12.16 8.51007 12.54 8.65007 12.75 8.76007C12.77 8.77007 12.8 8.77007 12.83 8.76007C12.86 8.75007 12.87 8.73007 12.88 8.70007L13.14 7.70007C13.15 7.66007 13.13 7.62007 13.09 7.60007C12.82 7.47007 12.33 7.32007 11.74 7.32007C10.58 7.32007 9.75999 7.98007 9.75999 8.93007C9.74999 9.39007 9.98999 10.0201 11.14 10.4101C11.7 10.6001 11.76 10.6901 11.76 10.8601C11.76 10.9301 11.76 11.1601 11.23 11.1601C10.83 11.1601 10.3 10.9801 10.03 10.8201C10.01 10.8101 9.97999 10.8001 9.94999 10.8101C9.91999 10.8201 9.89999 10.8401 9.89999 10.8701L9.63999 11.9001C9.62999 11.9401 9.64999 11.9801 9.67999 12.0001C10.07 12.2101 10.63 12.3301 11.22 12.3301C12.52 12.3301 13.32 11.7201 13.32 10.7401C13.33 10.0301 12.92 9.56007 12.02 9.25007Z" fill="#31A8FF"/>
</svg>
