<svg width="567" height="396" viewBox="0 0 567 396" fill="none" xmlns="http://www.w3.org/2000/svg">
<path d="M45.58 388.92C45.58 388.92 -21.06 298.56 34.31 200.72C83.44 113.92 140.71 119.85 182.73 155.08C200.63 170.08 252.23 156.93 296.15 68.6C356.04 -51.85 563.65 21.2 525.8 206.52C507.48 296.2 581.55 299.46 543.81 389.11L45.58 388.92Z" fill="url(#paint0_linear_78_681)"/>
<path d="M231.05 101.76C202.85 126.85 165.34 130.73 147.28 110.42C129.22 90.11 137.43 53.31 165.64 28.22C193.85 3.13001 231.35 -0.749993 249.41 19.56C267.48 39.87 259.26 76.67 231.05 101.76Z" fill="url(#paint1_linear_78_681)"/>
<path opacity="0.74" d="M88.39 103.4C80.64 94.69 79.44 83.1 85.71 77.52C91.98 71.94 103.35 74.48 111.1 83.19C118.85 91.9 120.05 103.49 113.78 109.07C107.51 114.65 96.14 112.11 88.39 103.4Z" fill="#D7F9FF"/>
<path opacity="0.74" d="M520.74 68.34C518.17 56.97 522.73 46.25 530.92 44.4C539.11 42.55 547.83 50.27 550.4 61.65C552.97 73.02 548.41 83.74 540.22 85.59C532.03 87.43 523.3 79.71 520.74 68.34Z" fill="#D7F9FF"/>
<path d="M443.02 105.37H429.89C423.49 105.37 418.25 100.13 418.25 93.73V83.88C418.25 77.48 423.49 72.24 429.89 72.24H443.02C449.42 72.24 454.66 77.48 454.66 83.88V93.73C454.67 100.13 449.43 105.37 443.02 105.37Z" fill="#DFEBFD"/>
<path d="M426.78 88.53C427.79 91.2 436.46 98.2 436.46 98.2C436.46 98.2 439.29 95.9 441.9 93.43C443.86 91.6 445.69 89.67 446.12 88.53C447.15 85.88 446.06 82.09 442.27 81.45C438.5 80.81 436.46 84.76 436.46 84.76C436.46 84.76 434.42 80.81 430.63 81.45C429.97 81.56 429.39 81.77 428.9 82.06C426.54 83.38 425.94 86.35 426.78 88.53Z" fill="#FF4A1E"/>
<path d="M59.4699 217.32H115.23C119.67 217.32 123.31 220.96 123.31 225.4V249.86C123.31 253.94 119.97 257.28 115.89 257.28H114.46L117.15 268.63L100.28 257.28H58.9899C54.5499 257.28 50.9199 253.65 50.9199 249.21V225.87C50.9099 221.17 54.7599 217.32 59.4699 217.32Z" fill="#EBE7F7"/>
<path d="M57.97 235.08H116.11C116.9 235.08 117.55 234.43 117.55 233.64C117.55 232.85 116.9 232.2 116.11 232.2H57.97C57.18 232.2 56.53 232.85 56.53 233.64C56.53 234.43 57.18 235.08 57.97 235.08Z" fill="#7C409C"/>
<path d="M57.97 241.52H116.11C116.9 241.52 117.55 240.87 117.55 240.08C117.55 239.29 116.9 238.64 116.11 238.64H57.97C57.18 238.64 56.53 239.29 56.53 240.08C56.53 240.88 57.18 241.52 57.97 241.52Z" fill="#7C409C"/>
<path d="M57.97 247.97H116.11C116.9 247.97 117.55 247.32 117.55 246.53C117.55 245.74 116.9 245.09 116.11 245.09H57.97C57.18 245.09 56.53 245.74 56.53 246.53C56.53 247.32 57.18 247.97 57.97 247.97Z" fill="#7C409C"/>
<path d="M89.6499 225.07H114.33C115.27 225.07 116.04 224.3 116.04 223.36C116.04 222.42 115.27 221.65 114.33 221.65H89.6499C88.7099 221.65 87.9399 222.42 87.9399 223.36C87.9299 224.3 88.6999 225.07 89.6499 225.07Z" fill="#7C409C"/>
<path d="M68.79 225.07H82.92C83.86 225.07 84.63 224.3 84.63 223.36C84.63 222.42 83.86 221.65 82.92 221.65H68.79C67.85 221.65 67.08 222.42 67.08 223.36C67.08 224.3 67.85 225.07 68.79 225.07Z" fill="#7C409C"/>
<path d="M426.62 204.07L461.69 215.54L440.68 195.06L438.55 200.07L429.53 200.11L426.62 204.07Z" fill="#6139BC"/>
<path d="M461.69 215.54L434.47 194.83L405.39 188.19L461.69 215.54Z" fill="#EBE7F7"/>
<path d="M440.68 195.06L461.69 215.54L447.69 186.86L440.68 195.06Z" fill="#EBE7F7"/>
<path d="M219.83 73.43L187.05 78.1L208.8 63.28L209.91 68.03L217.88 69.47L219.83 73.43Z" fill="#6139BC"/>
<path d="M187.05 78.1001L214.33 64.0401L241.06 62.7001L187.05 78.1001Z" fill="#EBE7F7"/>
<path d="M208.8 63.2801L187.05 78.1001L203.89 54.9301L208.8 63.2801Z" fill="#EBE7F7"/>
<path d="M370.43 389.46H247.84C235.92 389.46 226.16 379.71 226.16 367.78V98.7501C226.16 86.8301 235.91 77.0701 247.84 77.0701H370.43C382.35 77.0701 392.11 86.8201 392.11 98.7501V367.78C392.11 379.7 382.35 389.46 370.43 389.46Z" fill="#56309E"/>
<path d="M383.88 101.01V363.44C383.88 372.34 376.65 379.63 367.81 379.63H250.45C241.61 379.63 234.39 372.35 234.39 363.44V101.01C234.39 92.1101 241.62 84.8201 250.45 84.8201H367.81C376.65 84.8201 383.88 92.1001 383.88 101.01Z" fill="url(#paint2_linear_78_681)"/>
<path d="M367.81 84.8201L251.9 379.62H250.45C241.61 379.62 234.39 372.34 234.39 363.43V101.01C234.39 92.1101 241.62 84.8201 250.45 84.8201H367.81Z" fill="url(#paint3_linear_78_681)"/>
<path d="M333.09 94.58H285.18C280.87 94.58 277.34 91.05 277.34 86.74C277.34 82.43 280.87 78.9 285.18 78.9H333.09C337.4 78.9 340.93 82.43 340.93 86.74C340.92 91.05 337.4 94.58 333.09 94.58Z" fill="#56309E"/>
<path d="M169.84 238.75H330.25C337.83 238.75 343.97 232.61 343.97 225.03V164.66C343.97 157.08 337.83 150.94 330.25 150.94H169.84C162.26 150.94 156.12 157.08 156.12 164.66V225.03C156.12 232.61 162.27 238.75 169.84 238.75Z" fill="#744DA5"/>
<path d="M331.95 139.82H272.04C265.7 139.82 260.56 134.68 260.56 128.35V121.36C260.56 115.02 265.7 109.89 272.04 109.89H331.95C338.29 109.89 343.43 115.03 343.43 121.37V128.36C343.42 134.68 338.29 139.82 331.95 139.82Z" fill="#744DA5"/>
<path d="M328.55 359.3H259.72C252.13 359.3 245.98 353.15 245.98 345.56V336.11C245.98 328.52 252.13 322.37 259.72 322.37H328.55C336.14 322.37 342.29 328.52 342.29 336.11V345.56C342.29 353.15 336.14 359.3 328.55 359.3Z" fill="#744DA5"/>
<path d="M357.18 307.07H293.79C284.7 307.07 277.33 299.7 277.33 290.61V270.53C277.33 261.44 284.7 254.07 293.79 254.07H357.18C366.27 254.07 373.64 261.44 373.64 270.53V290.62C373.64 299.69 366.27 307.07 357.18 307.07Z" fill="#EBE7F7"/>
<path d="M228.32 191.53C228.32 197.78 226.22 203.54 222.67 208.13C221.49 209.66 220.16 211.05 218.69 212.29C213.95 216.31 207.81 218.74 201.1 218.74C195 218.74 189.38 216.74 184.84 213.35C182.84 211.86 181.05 210.1 179.53 208.12C175.98 203.52 173.88 197.77 173.88 191.52C173.88 176.49 186.06 164.3 201.1 164.3C216.13 164.32 228.32 176.5 228.32 191.53Z" fill="#EBE7F7"/>
<path d="M212.04 204.4C211.97 204.32 211.9 204.24 211.83 204.17C211.52 203.93 211.2 203.78 209.95 203.56C209.31 203.45 208.42 203.33 207.16 203.16C207.16 203.16 206.89 203.13 206.75 203.12C206.65 203.11 206.55 203.1 206.43 203.09C206.07 202.9 205.98 201.4 205.98 199.82C205.98 199.7 205.98 199.58 205.98 199.46C205.99 198.86 206.01 198.27 206.03 197.74C206.03 197.71 206.03 197.68 206.03 197.64C206.81 197.7 207.32 197.7 207.32 197.7C208.77 197.58 209.68 193.7 210 190.56C210 190.56 210.72 188.84 210.72 186.97C210.72 185.92 210.49 184.83 209.79 183.97C209.42 183.53 209.08 183.24 208.77 183.06C208.68 182.97 208.59 182.89 208.5 182.81C207.15 181.31 201.67 175.7 198.07 178.95C197.98 178.63 196.81 174.98 191.13 176.17C191.48 176.13 194 175.9 194.73 176.91C194.63 176.87 192.43 175.89 191.05 176.74C190.41 177.13 190.01 177.94 189.79 178.79C189.79 178.8 189.79 178.8 189.78 178.81C189.78 178.82 189.78 178.82 189.78 178.82C189.78 178.83 189.77 178.84 189.77 178.85C189.74 178.97 189.72 179.08 189.69 179.2C189.69 179.22 189.68 179.23 189.68 179.25C189.68 179.26 189.68 179.26 189.68 179.26C189.68 179.26 189.68 179.26 189.68 179.27C189.51 180.15 189.51 181 189.61 181.42C189.82 182.31 191.39 184.95 192.43 184.95C192.82 184.95 193.24 184.82 193.61 184.66C193.45 185.13 193.31 185.64 193.19 186.2C192.09 191.39 195.53 195.33 197.32 194.35C198.46 193.73 199.33 195.73 199.33 195.73L199.34 195.72C199.17 199.51 198.13 201.99 197.36 202.61C197.08 202.64 196.49 202.71 195.74 202.83C195.74 202.83 193.11 203.12 191.11 203.99C191.09 204 191.08 204 191.06 204.01C190.6 204.2 190.21 204.41 189.92 204.64C189.92 204.65 189.91 204.65 189.91 204.65C189.76 204.77 189.63 204.9 189.54 205.03C189.49 205.09 189.45 205.14 189.42 205.2C188.75 206.48 188.08 208.39 187.43 210.64C191.28 213.51 196.05 215.21 201.22 215.21C206.91 215.21 212.12 213.15 216.14 209.74C214.64 206.68 212.96 205.1 212.04 204.4Z" fill="#FFC22A"/>
<path d="M277.41 177.82H247.42C246.09 177.82 245.01 176.73 245.01 175.41C245.01 174.08 246.1 173 247.42 173H277.41C278.74 173 279.82 174.09 279.82 175.41C279.82 176.74 278.74 177.82 277.41 177.82Z" fill="#EBE7F7"/>
<path d="M278.25 195.18H246.58C245.71 195.18 245.01 194.47 245.01 193.61C245.01 192.74 245.72 192.04 246.58 192.04H278.25C279.12 192.04 279.82 192.75 279.82 193.61C279.82 194.47 279.12 195.18 278.25 195.18Z" fill="#EBE7F7"/>
<path d="M263.86 202.62H246.58C245.71 202.62 245.01 201.91 245.01 201.05C245.01 200.18 245.72 199.48 246.58 199.48H263.86C264.73 199.48 265.43 200.19 265.43 201.05C265.44 201.92 264.73 202.62 263.86 202.62Z" fill="#EBE7F7"/>
<path d="M300.89 202.62H271.9C271.03 202.62 270.33 201.91 270.33 201.05C270.33 200.18 271.04 199.48 271.9 199.48H300.89C301.76 199.48 302.46 200.19 302.46 201.05C302.46 201.92 301.76 202.62 300.89 202.62Z" fill="#EBE7F7"/>
<path d="M328.15 195.18H286.63C285.76 195.18 285.06 194.47 285.06 193.61C285.06 192.74 285.77 192.04 286.63 192.04H328.15C329.02 192.04 329.72 192.75 329.72 193.61C329.73 194.47 329.02 195.18 328.15 195.18Z" fill="#EBE7F7"/>
<path d="M278.25 210.07H246.58C245.71 210.07 245.01 209.36 245.01 208.5C245.01 207.63 245.72 206.93 246.58 206.93H278.25C279.12 206.93 279.82 207.64 279.82 208.5C279.82 209.37 279.12 210.07 278.25 210.07Z" fill="#EBE7F7"/>
<path d="M328.15 210.07H286.63C285.76 210.07 285.06 209.36 285.06 208.5C285.06 207.63 285.77 206.93 286.63 206.93H328.15C329.02 206.93 329.72 207.64 329.72 208.5C329.73 209.37 329.02 210.07 328.15 210.07Z" fill="#EBE7F7"/>
<path d="M307.5 177.82H286.32C285.12 177.82 284.14 176.84 284.14 175.64V175.18C284.14 173.98 285.12 173 286.32 173H307.5C308.7 173 309.68 173.98 309.68 175.18V175.64C309.68 176.84 308.7 177.82 307.5 177.82Z" fill="#EBE7F7"/>
<path d="M279.68 332.86H258.36C257.42 332.86 256.64 332.09 256.64 331.14C256.64 330.2 257.41 329.42 258.36 329.42H279.68C280.62 329.42 281.4 330.19 281.4 331.14C281.4 332.09 280.63 332.86 279.68 332.86Z" fill="#4A2C76"/>
<path d="M280.28 341.65H257.76C257.14 341.65 256.64 341.15 256.64 340.53C256.64 339.91 257.14 339.41 257.76 339.41H280.28C280.9 339.41 281.4 339.91 281.4 340.53C281.4 341.15 280.9 341.65 280.28 341.65Z" fill="#4A2C76"/>
<path d="M270.05 346.94H257.76C257.14 346.94 256.64 346.44 256.64 345.82C256.64 345.2 257.14 344.7 257.76 344.7H270.05C270.67 344.7 271.17 345.2 271.17 345.82C271.17 346.44 270.67 346.94 270.05 346.94Z" fill="#4A2C76"/>
<path d="M296.38 346.94H275.77C275.15 346.94 274.65 346.44 274.65 345.82C274.65 345.2 275.15 344.7 275.77 344.7H296.38C297 344.7 297.5 345.2 297.5 345.82C297.5 346.44 296.99 346.94 296.38 346.94Z" fill="#4A2C76"/>
<path d="M315.76 341.65H286.24C285.62 341.65 285.12 341.15 285.12 340.53C285.12 339.91 285.62 339.41 286.24 339.41H315.76C316.38 339.41 316.88 339.91 316.88 340.53C316.88 341.15 316.38 341.65 315.76 341.65Z" fill="#4A2C76"/>
<path d="M280.28 352.24H257.76C257.14 352.24 256.64 351.74 256.64 351.12C256.64 350.5 257.14 350 257.76 350H280.28C280.9 350 281.4 350.5 281.4 351.12C281.4 351.74 280.9 352.24 280.28 352.24Z" fill="#4A2C76"/>
<path d="M315.76 352.24H286.24C285.62 352.24 285.12 351.74 285.12 351.12C285.12 350.5 285.62 350 286.24 350H315.76C316.38 350 316.88 350.5 316.88 351.12C316.88 351.74 316.38 352.24 315.76 352.24Z" fill="#4A2C76"/>
<path d="M301.07 332.86H286.01C285.16 332.86 284.46 332.16 284.46 331.31V330.98C284.46 330.13 285.16 329.43 286.01 329.43H301.07C301.92 329.43 302.62 330.13 302.62 330.98V331.31C302.63 332.16 301.93 332.86 301.07 332.86Z" fill="#4A2C76"/>
<path d="M294.27 119.09H272.95C272.01 119.09 271.23 118.32 271.23 117.37C271.23 116.43 272 115.65 272.95 115.65H294.27C295.21 115.65 295.99 116.42 295.99 117.37C295.98 118.32 295.21 119.09 294.27 119.09Z" fill="#4A2C76"/>
<path d="M294.86 127.88H272.34C271.72 127.88 271.22 127.38 271.22 126.76C271.22 126.14 271.72 125.64 272.34 125.64H294.86C295.48 125.64 295.98 126.14 295.98 126.76C295.98 127.38 295.48 127.88 294.86 127.88Z" fill="#4A2C76"/>
<path d="M284.63 133.18H272.34C271.72 133.18 271.22 132.68 271.22 132.06C271.22 131.44 271.72 130.94 272.34 130.94H284.63C285.25 130.94 285.75 131.44 285.75 132.06C285.75 132.67 285.25 133.18 284.63 133.18Z" fill="#4A2C76"/>
<path d="M310.96 133.18H290.35C289.73 133.18 289.23 132.68 289.23 132.06C289.23 131.44 289.73 130.94 290.35 130.94H310.96C311.58 130.94 312.08 131.44 312.08 132.06C312.08 132.67 311.57 133.18 310.96 133.18Z" fill="#4A2C76"/>
<path d="M330.34 127.88H300.82C300.2 127.88 299.7 127.38 299.7 126.76C299.7 126.14 300.2 125.64 300.82 125.64H330.34C330.96 125.64 331.46 126.14 331.46 126.76C331.46 127.38 330.96 127.88 330.34 127.88Z" fill="#4A2C76"/>
<path d="M315.66 119.09H300.6C299.75 119.09 299.05 118.39 299.05 117.54V117.21C299.05 116.36 299.75 115.66 300.6 115.66H315.66C316.51 115.66 317.21 116.36 317.21 117.21V117.54C317.21 118.39 316.51 119.09 315.66 119.09Z" fill="#4A2C76"/>
<path d="M313.66 267.53H290.32C289.29 267.53 288.44 266.68 288.44 265.65C288.44 264.62 289.29 263.77 290.32 263.77H313.66C314.69 263.77 315.54 264.62 315.54 265.65C315.54 266.68 314.7 267.53 313.66 267.53Z" fill="#4A2C76"/>
<path d="M314.32 277.15H289.67C289 277.15 288.45 276.6 288.45 275.93C288.45 275.26 289 274.71 289.67 274.71H314.32C314.99 274.71 315.54 275.26 315.54 275.93C315.54 276.6 314.99 277.15 314.32 277.15Z" fill="#4A2C76"/>
<path d="M303.12 282.95H289.67C289 282.95 288.45 282.4 288.45 281.73C288.45 281.06 289 280.51 289.67 280.51H303.12C303.79 280.51 304.34 281.06 304.34 281.73C304.34 282.4 303.79 282.95 303.12 282.95Z" fill="#4A2C76"/>
<path d="M331.94 282.95H309.37C308.7 282.95 308.15 282.4 308.15 281.73C308.15 281.06 308.7 280.51 309.37 280.51H331.94C332.61 280.51 333.16 281.06 333.16 281.73C333.16 282.4 332.61 282.95 331.94 282.95Z" fill="#4A2C76"/>
<path d="M353.16 277.15H320.84C320.17 277.15 319.62 276.6 319.62 275.93C319.62 275.26 320.17 274.71 320.84 274.71H353.16C353.83 274.71 354.39 275.26 354.39 275.93C354.39 276.6 353.83 277.15 353.16 277.15Z" fill="#4A2C76"/>
<path d="M314.32 288.74H289.67C289 288.74 288.45 288.19 288.45 287.52C288.45 286.85 289 286.29 289.67 286.29H314.32C314.99 286.29 315.54 286.84 315.54 287.52C315.54 288.19 314.99 288.74 314.32 288.74Z" fill="#4A2C76"/>
<path d="M353.16 288.74H320.84C320.17 288.74 319.62 288.19 319.62 287.52C319.62 286.85 320.17 286.29 320.84 286.29H353.16C353.83 286.29 354.39 286.84 354.39 287.52C354.39 288.19 353.83 288.74 353.16 288.74Z" fill="#4A2C76"/>
<path d="M314.32 294.78H289.67C289 294.78 288.45 294.23 288.45 293.56C288.45 292.89 289 292.34 289.67 292.34H314.32C314.99 292.34 315.54 292.89 315.54 293.56C315.54 294.23 314.99 294.78 314.32 294.78Z" fill="#4A2C76"/>
<path d="M353.16 294.78H320.84C320.17 294.78 319.62 294.23 319.62 293.56C319.62 292.89 320.17 292.34 320.84 292.34H353.16C353.83 292.34 354.39 292.89 354.39 293.56C354.39 294.23 353.83 294.78 353.16 294.78Z" fill="#4A2C76"/>
<path d="M337.08 267.53H320.6C319.67 267.53 318.9 266.77 318.9 265.83V265.47C318.9 264.54 319.66 263.77 320.6 263.77H337.08C338.01 263.77 338.78 264.53 338.78 265.47V265.83C338.78 266.76 338.02 267.53 337.08 267.53Z" fill="#4A2C76"/>
<path d="M257.02 101.24L255.35 102.44L253.67 101.25C254.04 100.73 254.66 100.38 255.35 100.38C256.04 100.38 256.65 100.72 257.02 101.24Z" fill="#EBE7F7"/>
<path d="M255.35 97.45C253.67 97.45 252.18 98.29 251.28 99.57L252.34 100.31C253.01 99.37 254.11 98.75 255.35 98.75C256.58 98.75 257.67 99.36 258.34 100.29L259.4 99.53C258.49 98.27 257.01 97.45 255.35 97.45Z" fill="#EBE7F7"/>
<path d="M255.35 91.89C251.79 91.89 248.65 93.66 246.74 96.36L247.8 97.1C249.47 94.73 252.23 93.18 255.35 93.18C258.44 93.18 261.18 94.71 262.86 97.04L263.91 96.28C262 93.63 258.87 91.89 255.35 91.89Z" fill="#EBE7F7"/>
<path d="M255.35 94.9401C252.82 94.9401 250.58 96.1901 249.21 98.1101L250.27 98.8501C251.4 97.2701 253.25 96.2401 255.35 96.2401C257.43 96.2401 259.27 97.2601 260.4 98.8201L261.45 98.0701C260.08 96.1701 257.86 94.9401 255.35 94.9401Z" fill="#EBE7F7"/>
<path d="M245.96 278.39C245.96 280.85 246.79 283.11 248.18 284.91C248.64 285.51 249.17 286.06 249.74 286.55C250.31 287.04 250.94 287.46 251.6 287.82C253.1 288.63 254.82 289.09 256.65 289.09C258.93 289.09 261.04 288.37 262.78 287.16C262.87 287.1 262.95 287.04 263.04 286.97C263.83 286.38 264.53 285.69 265.13 284.92C266.52 283.12 267.35 280.86 267.35 278.4C267.35 272.5 262.56 267.71 256.66 267.71C250.74 267.71 245.96 272.49 245.96 278.39Z" fill="#EBE7F7"/>
<path d="M259.54 285.25L258.56 284.38C258.48 284.4 258.4 284.41 258.31 284.43C258.13 284.31 257.94 284.18 257.73 284.07C257.79 283.67 257.85 283.3 257.89 282.98C258.04 281.83 258.06 281.14 258.06 281.04C258.58 281.01 258.93 280.96 258.93 280.96C259.92 280.73 259.97 277.36 259.74 275.6C259.93 275.6 260.11 275.58 260.29 275.5C261.04 275.17 261.08 274.04 261.08 274.04C261.08 274.04 260.86 274.44 260.54 274.57C260.54 274.57 261.79 272.86 260.34 271.69C258.9 270.52 257.42 271.28 256.58 271.33C254.74 271.44 253.54 271.55 252.94 272.77C252.34 273.97 252.58 277.26 253.72 278.47C253.74 278.58 253.76 278.69 253.77 278.81C253.84 279.24 254 279.6 254.22 279.88C253.96 281.3 253.38 282.35 252.85 283.06C252.49 283.34 252.17 283.69 251.87 284.12C251.86 284.13 251.85 284.13 251.85 284.13C251.85 284.13 251.85 284.13 251.86 284.13C251.3 284.92 250.85 285.95 250.48 287.16C250.48 287.17 250.48 287.17 250.47 287.18C251.07 287.61 251.73 287.96 252.42 288.25C252.47 288.27 252.51 288.29 252.56 288.31C252.57 288.31 252.58 288.32 252.59 288.32C252.66 288.35 252.74 288.38 252.81 288.41C252.99 288.48 253.17 288.55 253.35 288.6C253.54 288.66 253.74 288.72 253.93 288.77C254.02 288.79 254.11 288.82 254.2 288.83C254.28 288.85 254.36 288.87 254.44 288.88C254.45 288.88 254.46 288.89 254.47 288.89C254.52 288.9 254.58 288.91 254.63 288.92C254.75 288.94 254.88 288.97 255.01 288.98C255.04 288.98 255.07 288.99 255.1 288.99C255.17 289 255.24 289.01 255.31 289.02C255.41 289.03 255.51 289.04 255.61 289.05C255.72 289.06 255.83 289.07 255.95 289.08C256.05 289.09 256.16 289.09 256.27 289.1C256.38 289.1 256.49 289.11 256.61 289.11C256.73 289.11 256.85 289.11 256.97 289.1C256.98 289.1 256.99 289.1 257 289.1C257.03 289.1 257.06 289.1 257.09 289.1C257.15 289.1 257.21 289.1 257.27 289.09C257.28 289.09 257.28 289.09 257.29 289.09C257.4 289.08 257.51 289.08 257.63 289.06C259.07 288.92 260.44 288.5 261.66 287.84C261.04 286.76 260.27 285.93 259.54 285.25Z" fill="#4A2C76"/>
<path d="M350.91 340.53C350.91 343 351.74 345.28 353.14 347.1C353.6 347.7 354.13 348.26 354.71 348.75C356.59 350.34 359.01 351.3 361.67 351.3C364.08 351.3 366.3 350.51 368.1 349.17C368.89 348.58 369.6 347.88 370.2 347.1C371.6 345.28 372.43 343.01 372.43 340.53C372.43 334.59 367.61 329.77 361.67 329.77C355.73 329.77 350.91 334.59 350.91 340.53Z" fill="#EBE7F7"/>
<path d="M367.18 346.63C367.17 346.6 367.15 346.57 367.13 346.55C367.09 346.49 367.03 346.43 366.96 346.37C366.82 346.26 366.64 346.16 366.43 346.07C366.42 346.07 366.42 346.06 366.41 346.06C365.48 345.65 364.25 345.52 364.25 345.52C363.9 345.47 363.62 345.43 363.49 345.42C363.13 345.13 362.64 343.98 362.56 342.21V342.22C362.56 342.22 362.96 341.28 363.5 341.58C364.33 342.03 365.94 340.2 365.43 337.78C365.37 337.52 365.31 337.28 365.23 337.06C365.41 337.13 365.6 337.2 365.78 337.2C366.26 337.2 366.99 335.96 367.09 335.55C367.19 335.14 367.08 333.77 366.42 333.37C365.77 332.97 364.75 333.43 364.71 333.45C365.04 332.99 366.17 333.08 366.37 333.1C363.74 332.55 363.19 334.24 363.15 334.39C361.47 332.88 358.92 335.49 358.29 336.19C358.25 336.23 358.21 336.27 358.16 336.31C358.02 336.39 357.86 336.53 357.69 336.73C357.36 337.13 357.26 337.64 357.26 338.13C357.26 339 357.59 339.8 357.59 339.8C357.74 341.26 358.17 343.08 358.84 343.13C358.84 343.13 359.08 343.13 359.44 343.1C359.44 343.12 359.44 343.13 359.44 343.15C359.45 343.4 359.46 343.67 359.46 343.95V344.12C359.46 344.86 359.42 345.56 359.25 345.64C359.19 345.65 359.15 345.65 359.1 345.65C359.03 345.65 358.91 345.67 358.91 345.67C358.32 345.75 357.91 345.81 357.61 345.86C357.02 345.96 356.88 346.03 356.73 346.14C356.7 346.17 356.66 346.21 356.63 346.25C356.2 346.57 355.41 347.31 354.73 348.75C356.61 350.34 359.03 351.3 361.69 351.3C364.1 351.3 366.32 350.51 368.12 349.17C367.8 348.12 367.49 347.22 367.18 346.63Z" fill="#41B8E1"/>
<path d="M350.91 124.21C350.91 126.68 351.74 128.96 353.14 130.78C353.6 131.38 354.13 131.94 354.71 132.43C356.59 134.02 359.01 134.98 361.67 134.98C364.08 134.98 366.3 134.19 368.1 132.85C368.89 132.26 369.6 131.56 370.2 130.78C371.6 128.96 372.43 126.69 372.43 124.21C372.43 118.27 367.61 113.45 361.67 113.45C355.73 113.45 350.91 118.27 350.91 124.21Z" fill="#EBE7F7"/>
<path d="M367.18 130.31C367.17 130.28 367.15 130.26 367.13 130.23C367.09 130.17 367.03 130.11 366.96 130.05C366.82 129.94 366.64 129.84 366.43 129.75C366.42 129.75 366.42 129.74 366.41 129.74C365.48 129.33 364.25 129.2 364.25 129.2C363.9 129.14 363.62 129.11 363.49 129.1C363.4 129.03 363.31 128.91 363.22 128.75C362.92 128.23 362.63 127.24 362.57 125.89V125.9C362.57 125.9 362.97 124.97 363.51 125.26C364.34 125.71 365.95 123.88 365.44 121.46C365.38 121.2 365.32 120.96 365.24 120.74C365.42 120.81 365.61 120.88 365.79 120.88C366.27 120.88 367 119.64 367.1 119.23C367.2 118.81 367.09 117.45 366.43 117.05C365.78 116.65 364.76 117.11 364.72 117.13C365.05 116.67 366.18 116.76 366.38 116.78C363.75 116.23 363.2 117.93 363.16 118.07C361.48 116.56 358.93 119.18 358.3 119.87C358.26 119.91 358.22 119.95 358.17 119.99C358.03 120.07 357.87 120.21 357.7 120.42C357.37 120.82 357.27 121.33 357.27 121.82C357.27 122.69 357.6 123.49 357.6 123.49C357.75 124.96 358.18 126.77 358.85 126.82C358.85 126.82 359.09 126.82 359.45 126.79C359.45 126.8 359.45 126.82 359.45 126.84C359.46 127.09 359.47 127.36 359.47 127.64V127.81C359.47 128.55 359.43 129.24 359.26 129.33C359.2 129.33 359.16 129.34 359.11 129.34C359.04 129.35 358.92 129.36 358.92 129.36C358.33 129.44 357.92 129.5 357.62 129.55C357.03 129.65 356.89 129.72 356.74 129.83C356.71 129.86 356.67 129.9 356.64 129.94C356.21 130.26 355.42 131.01 354.74 132.44C354.84 132.53 354.95 132.61 355.05 132.69C355.07 132.7 355.09 132.72 355.1 132.73C355.18 132.79 355.26 132.85 355.34 132.91C355.4 132.96 355.45 133 355.51 133.04C355.57 133.08 355.63 133.12 355.69 133.16C355.77 133.22 355.86 133.28 355.95 133.33C356.01 133.37 356.07 133.41 356.13 133.44C356.2 133.49 356.28 133.53 356.36 133.57C356.44 133.62 356.53 133.67 356.61 133.71C356.62 133.71 356.62 133.72 356.63 133.72L356.64 133.73C356.65 133.74 356.67 133.74 356.68 133.75C356.75 133.79 356.82 133.82 356.88 133.85C356.89 133.85 356.89 133.85 356.89 133.86C356.91 133.87 356.93 133.88 356.95 133.89C356.99 133.91 357.03 133.93 357.07 133.95C357.11 133.97 357.14 133.98 357.18 134C357.26 134.04 357.35 134.08 357.44 134.12C357.53 134.16 357.62 134.19 357.71 134.23C357.75 134.25 357.79 134.26 357.83 134.28C357.87 134.29 357.91 134.31 357.95 134.33C358.03 134.36 358.12 134.39 358.2 134.42C358.29 134.45 358.37 134.48 358.46 134.5C358.53 134.52 358.61 134.55 358.68 134.57C358.69 134.57 358.69 134.57 358.7 134.58C358.75 134.59 358.79 134.61 358.84 134.62C359.1 134.69 359.36 134.75 359.62 134.8C359.74 134.82 359.85 134.85 359.97 134.86C360 134.87 360.03 134.87 360.06 134.87C360.07 134.87 360.07 134.87 360.08 134.87H360.09C360.17 134.88 360.24 134.89 360.32 134.9C360.34 134.9 360.35 134.91 360.37 134.91C360.38 134.91 360.39 134.91 360.4 134.92C360.47 134.93 360.54 134.94 360.61 134.94C360.62 134.94 360.64 134.94 360.65 134.94C360.67 134.94 360.69 134.95 360.71 134.95C360.84 134.96 360.96 134.97 361.09 134.98H361.11C361.15 134.98 361.19 134.99 361.23 134.99C361.26 134.99 361.28 134.99 361.3 134.99C361.42 135 361.55 135 361.67 135C364.08 135 366.3 134.21 368.1 132.87C367.8 131.8 367.49 130.91 367.18 130.31Z" fill="#41B8E1"/>
<defs>
<linearGradient id="paint0_linear_78_681" x1="5.23208" y1="199.375" x2="567.409" y2="199.375" gradientUnits="userSpaceOnUse">
<stop stop-color="#71E4FF"/>
<stop offset="1" stop-color="#00AEFF"/>
</linearGradient>
<linearGradient id="paint1_linear_78_681" x1="5.23212" y1="64.9891" x2="567.409" y2="64.9891" gradientUnits="userSpaceOnUse">
<stop stop-color="#71E4FF"/>
<stop offset="1" stop-color="#00C9FF"/>
</linearGradient>
<linearGradient id="paint2_linear_78_681" x1="234.388" y1="232.222" x2="383.882" y2="232.222" gradientUnits="userSpaceOnUse">
<stop stop-color="#FED747"/>
<stop offset="1" stop-color="#F94E43"/>
</linearGradient>
<linearGradient id="paint3_linear_78_681" x1="234.388" y1="232.222" x2="367.814" y2="232.222" gradientUnits="userSpaceOnUse">
<stop stop-color="#FED747"/>
<stop offset="1" stop-color="#F94E43"/>
</linearGradient>
</defs>
</svg>
