<svg width="544" height="384" viewBox="0 0 544 384" fill="none" xmlns="http://www.w3.org/2000/svg">
<path d="M34.08 382.92C34.08 382.92 -32.56 292.56 22.81 194.72C71.94 107.92 129.21 113.85 171.23 149.08C189.13 164.08 240.73 150.93 284.65 62.5999C344.54 -57.8501 552.15 15.1999 514.3 200.52C495.98 290.2 570.05 293.46 532.31 383.11L34.08 382.92Z" fill="url(#paint0_linear_18_564)"/>
<path d="M219.55 95.76C191.35 120.85 153.84 124.73 135.78 104.42C117.72 84.11 125.93 47.31 154.14 22.22C182.35 -2.86999 219.85 -6.74999 237.91 13.56C255.98 33.87 247.76 70.67 219.55 95.76Z" fill="url(#paint1_linear_18_564)"/>
<path opacity="0.74" d="M76.89 97.3999C69.14 88.6899 67.94 77.0999 74.21 71.5199C80.48 65.9399 91.85 68.4799 99.6 77.1899C107.35 85.8999 108.55 97.4899 102.28 103.07C96.01 108.65 84.64 106.11 76.89 97.3999Z" fill="#D7F9FF"/>
<path opacity="0.74" d="M509.24 62.34C506.67 50.97 511.23 40.25 519.42 38.4C527.61 36.55 536.33 44.27 538.9 55.65C541.47 67.02 536.91 77.74 528.72 79.59C520.53 81.43 511.8 73.71 509.24 62.34Z" fill="#D7F9FF"/>
<path d="M431.52 99.37H418.39C411.99 99.37 406.75 94.13 406.75 87.73V77.88C406.75 71.48 411.99 66.24 418.39 66.24H431.52C437.92 66.24 443.16 71.48 443.16 77.88V87.73C443.17 94.13 437.93 99.37 431.52 99.37Z" fill="#DFEBFD"/>
<path d="M415.28 82.53C416.29 85.2 424.96 92.2 424.96 92.2C424.96 92.2 427.79 89.9 430.4 87.43C432.36 85.6 434.19 83.67 434.62 82.53C435.65 79.88 434.56 76.09 430.77 75.45C427 74.81 424.96 78.76 424.96 78.76C424.96 78.76 422.92 74.81 419.13 75.45C418.47 75.56 417.89 75.77 417.4 76.06C415.04 77.38 414.44 80.35 415.28 82.53Z" fill="#FF4A1E"/>
<path d="M47.97 211.32H103.73C108.17 211.32 111.81 214.96 111.81 219.4V243.86C111.81 247.94 108.47 251.28 104.39 251.28H102.96L105.65 262.63L88.78 251.28H47.49C43.05 251.28 39.42 247.65 39.42 243.21V219.87C39.41 215.17 43.26 211.32 47.97 211.32Z" fill="#EBE7F7"/>
<path d="M46.47 229.08H104.61C105.4 229.08 106.05 228.43 106.05 227.64C106.05 226.85 105.4 226.2 104.61 226.2H46.47C45.68 226.2 45.03 226.85 45.03 227.64C45.03 228.43 45.68 229.08 46.47 229.08Z" fill="#7C409C"/>
<path d="M46.47 235.52H104.61C105.4 235.52 106.05 234.87 106.05 234.08C106.05 233.29 105.4 232.64 104.61 232.64H46.47C45.68 232.64 45.03 233.29 45.03 234.08C45.03 234.88 45.68 235.52 46.47 235.52Z" fill="#7C409C"/>
<path d="M46.47 241.97H104.61C105.4 241.97 106.05 241.32 106.05 240.53C106.05 239.74 105.4 239.09 104.61 239.09H46.47C45.68 239.09 45.03 239.74 45.03 240.53C45.03 241.32 45.68 241.97 46.47 241.97Z" fill="#7C409C"/>
<path d="M78.15 219.07H102.83C103.77 219.07 104.54 218.3 104.54 217.36C104.54 216.42 103.77 215.65 102.83 215.65H78.15C77.21 215.65 76.44 216.42 76.44 217.36C76.43 218.3 77.2 219.07 78.15 219.07Z" fill="#7C409C"/>
<path d="M57.29 219.07H71.42C72.36 219.07 73.13 218.3 73.13 217.36C73.13 216.42 72.36 215.65 71.42 215.65H57.29C56.35 215.65 55.58 216.42 55.58 217.36C55.58 218.3 56.35 219.07 57.29 219.07Z" fill="#7C409C"/>
<path d="M415.12 198.07L450.19 209.54L429.18 189.06L427.05 194.07L418.03 194.11L415.12 198.07Z" fill="#6139BC"/>
<path d="M450.19 209.54L422.97 188.83L393.89 182.19L450.19 209.54Z" fill="#EBE7F7"/>
<path d="M429.18 189.06L450.19 209.54L436.19 180.86L429.18 189.06Z" fill="#EBE7F7"/>
<path d="M208.33 67.43L175.55 72.1L197.3 57.28L198.41 62.03L206.38 63.47L208.33 67.43Z" fill="#6139BC"/>
<path d="M175.55 72.0999L202.83 58.04L229.56 56.7L175.55 72.0999Z" fill="#EBE7F7"/>
<path d="M197.3 57.2799L175.55 72.0999L192.39 48.9299L197.3 57.2799Z" fill="#EBE7F7"/>
<path d="M358.93 383.46H236.34C224.42 383.46 214.66 373.71 214.66 361.78V92.7501C214.66 80.8301 224.41 71.0701 236.34 71.0701H358.93C370.85 71.0701 380.61 80.8201 380.61 92.7501V361.78C380.61 373.7 370.85 383.46 358.93 383.46Z" fill="#440279"/>
<path d="M372.38 95.0101V357.44C372.38 366.34 365.15 373.63 356.31 373.63H238.95C230.11 373.63 222.89 366.35 222.89 357.44V95.0101C222.89 86.1101 230.12 78.8201 238.95 78.8201H356.31C365.15 78.8201 372.38 86.1001 372.38 95.0101Z" fill="url(#paint2_linear_18_564)"/>
<path d="M356.31 78.8201L240.4 373.62H238.95C230.11 373.62 222.89 366.34 222.89 357.43V95.0101C222.89 86.1101 230.12 78.8201 238.95 78.8201H356.31Z" fill="url(#paint3_linear_18_564)"/>
<path d="M321.59 88.5801H273.68C269.37 88.5801 265.84 85.0501 265.84 80.7401C265.84 76.4301 269.37 72.9001 273.68 72.9001H321.59C325.9 72.9001 329.43 76.4301 329.43 80.7401C329.42 85.0501 325.9 88.5801 321.59 88.5801Z" fill="#440279"/>
<path d="M158.34 232.75H318.75C326.33 232.75 332.47 226.61 332.47 219.03V158.66C332.47 151.08 326.33 144.94 318.75 144.94H158.34C150.76 144.94 144.62 151.08 144.62 158.66V219.03C144.62 226.61 150.77 232.75 158.34 232.75Z" fill="#744DA5"/>
<path d="M320.45 133.82H260.54C254.2 133.82 249.06 128.68 249.06 122.35V115.36C249.06 109.02 254.2 103.89 260.54 103.89H320.45C326.79 103.89 331.93 109.03 331.93 115.37V122.36C331.92 128.68 326.79 133.82 320.45 133.82Z" fill="#744DA5"/>
<path d="M317.05 353.3H248.22C240.63 353.3 234.48 347.15 234.48 339.56V330.11C234.48 322.52 240.63 316.37 248.22 316.37H317.05C324.64 316.37 330.79 322.52 330.79 330.11V339.56C330.79 347.15 324.64 353.3 317.05 353.3Z" fill="#744DA5"/>
<path d="M345.68 301.07H282.29C273.2 301.07 265.83 293.7 265.83 284.61V264.53C265.83 255.44 273.2 248.07 282.29 248.07H345.68C354.77 248.07 362.14 255.44 362.14 264.53V284.62C362.14 293.69 354.77 301.07 345.68 301.07Z" fill="#EBE7F7"/>
<path d="M216.82 185.53C216.82 191.78 214.72 197.54 211.17 202.13C209.99 203.66 208.66 205.05 207.19 206.29C202.45 210.31 196.31 212.74 189.6 212.74C183.5 212.74 177.88 210.74 173.34 207.35C171.34 205.86 169.55 204.1 168.03 202.12C164.48 197.52 162.38 191.77 162.38 185.52C162.38 170.49 174.56 158.3 189.6 158.3C204.63 158.32 216.82 170.5 216.82 185.53Z" fill="#EBE7F7"/>
<path d="M200.54 198.4C200.47 198.32 200.4 198.24 200.33 198.17C200.02 197.93 199.7 197.78 198.45 197.56C197.81 197.45 196.92 197.33 195.66 197.16C195.66 197.16 195.39 197.13 195.25 197.12C195.15 197.11 195.05 197.1 194.93 197.09C194.57 196.9 194.48 195.4 194.48 193.82C194.48 193.7 194.48 193.58 194.48 193.46C194.49 192.86 194.51 192.27 194.53 191.74C194.53 191.71 194.53 191.68 194.53 191.64C195.31 191.7 195.82 191.7 195.82 191.7C197.27 191.58 198.18 187.7 198.5 184.56C198.5 184.56 199.22 182.84 199.22 180.97C199.22 179.92 198.99 178.83 198.29 177.97C197.92 177.53 197.58 177.24 197.27 177.06C197.18 176.97 197.09 176.89 197 176.81C195.65 175.31 190.17 169.7 186.57 172.95C186.48 172.63 185.31 168.98 179.63 170.17C179.98 170.13 182.5 169.9 183.23 170.91C183.13 170.87 180.93 169.89 179.55 170.74C178.91 171.13 178.51 171.94 178.29 172.79C178.29 172.8 178.29 172.8 178.28 172.81C178.28 172.82 178.28 172.82 178.28 172.82C178.28 172.83 178.27 172.84 178.27 172.85C178.24 172.97 178.22 173.08 178.19 173.2C178.19 173.22 178.18 173.23 178.18 173.25C178.18 173.26 178.18 173.26 178.18 173.26C178.18 173.26 178.18 173.26 178.18 173.27C178.01 174.15 178.01 175 178.11 175.42C178.32 176.31 179.89 178.95 180.93 178.95C181.32 178.95 181.74 178.82 182.11 178.66C181.95 179.13 181.81 179.64 181.69 180.2C180.59 185.39 184.03 189.33 185.82 188.35C186.96 187.73 187.83 189.73 187.83 189.73L187.84 189.72C187.67 193.51 186.63 195.99 185.86 196.61C185.58 196.64 184.99 196.71 184.24 196.83C184.24 196.83 181.61 197.12 179.61 197.99C179.59 198 179.58 198 179.56 198.01C179.1 198.2 178.71 198.41 178.42 198.64C178.42 198.65 178.41 198.65 178.41 198.65C178.26 198.77 178.13 198.9 178.04 199.03C177.99 199.09 177.95 199.14 177.92 199.2C177.25 200.48 176.58 202.39 175.93 204.64C179.78 207.51 184.55 209.21 189.72 209.21C195.41 209.21 200.62 207.15 204.64 203.74C203.14 200.68 201.46 199.1 200.54 198.4Z" fill="#FFC22A"/>
<path d="M265.91 171.82H235.92C234.59 171.82 233.51 170.73 233.51 169.41C233.51 168.08 234.6 167 235.92 167H265.91C267.24 167 268.32 168.09 268.32 169.41C268.32 170.74 267.24 171.82 265.91 171.82Z" fill="#EBE7F7"/>
<path d="M266.75 189.18H235.08C234.21 189.18 233.51 188.47 233.51 187.61C233.51 186.74 234.22 186.04 235.08 186.04H266.75C267.62 186.04 268.32 186.75 268.32 187.61C268.32 188.47 267.62 189.18 266.75 189.18Z" fill="#EBE7F7"/>
<path d="M252.36 196.62H235.08C234.21 196.62 233.51 195.91 233.51 195.05C233.51 194.18 234.22 193.48 235.08 193.48H252.36C253.23 193.48 253.93 194.19 253.93 195.05C253.94 195.92 253.23 196.62 252.36 196.62Z" fill="#EBE7F7"/>
<path d="M289.39 196.62H260.4C259.53 196.62 258.83 195.91 258.83 195.05C258.83 194.18 259.54 193.48 260.4 193.48H289.39C290.26 193.48 290.96 194.19 290.96 195.05C290.96 195.92 290.26 196.62 289.39 196.62Z" fill="#EBE7F7"/>
<path d="M316.65 189.18H275.13C274.26 189.18 273.56 188.47 273.56 187.61C273.56 186.74 274.27 186.04 275.13 186.04H316.65C317.52 186.04 318.22 186.75 318.22 187.61C318.23 188.47 317.52 189.18 316.65 189.18Z" fill="#EBE7F7"/>
<path d="M266.75 204.07H235.08C234.21 204.07 233.51 203.36 233.51 202.5C233.51 201.63 234.22 200.93 235.08 200.93H266.75C267.62 200.93 268.32 201.64 268.32 202.5C268.32 203.37 267.62 204.07 266.75 204.07Z" fill="#EBE7F7"/>
<path d="M316.65 204.07H275.13C274.26 204.07 273.56 203.36 273.56 202.5C273.56 201.63 274.27 200.93 275.13 200.93H316.65C317.52 200.93 318.22 201.64 318.22 202.5C318.23 203.37 317.52 204.07 316.65 204.07Z" fill="#EBE7F7"/>
<path d="M296 171.82H274.82C273.62 171.82 272.64 170.84 272.64 169.64V169.18C272.64 167.98 273.62 167 274.82 167H296C297.2 167 298.18 167.98 298.18 169.18V169.64C298.18 170.84 297.2 171.82 296 171.82Z" fill="#EBE7F7"/>
<path d="M268.18 326.86H246.86C245.92 326.86 245.14 326.09 245.14 325.14C245.14 324.2 245.91 323.42 246.86 323.42H268.18C269.12 323.42 269.9 324.19 269.9 325.14C269.9 326.09 269.13 326.86 268.18 326.86Z" fill="#4A2C76"/>
<path d="M268.78 335.65H246.26C245.64 335.65 245.14 335.15 245.14 334.53C245.14 333.91 245.64 333.41 246.26 333.41H268.78C269.4 333.41 269.9 333.91 269.9 334.53C269.9 335.15 269.4 335.65 268.78 335.65Z" fill="#4A2C76"/>
<path d="M258.55 340.94H246.26C245.64 340.94 245.14 340.44 245.14 339.82C245.14 339.2 245.64 338.7 246.26 338.7H258.55C259.17 338.7 259.67 339.2 259.67 339.82C259.67 340.44 259.17 340.94 258.55 340.94Z" fill="#4A2C76"/>
<path d="M284.88 340.94H264.27C263.65 340.94 263.15 340.44 263.15 339.82C263.15 339.2 263.65 338.7 264.27 338.7H284.88C285.5 338.7 286 339.2 286 339.82C286 340.44 285.49 340.94 284.88 340.94Z" fill="#4A2C76"/>
<path d="M304.26 335.65H274.74C274.12 335.65 273.62 335.15 273.62 334.53C273.62 333.91 274.12 333.41 274.74 333.41H304.26C304.88 333.41 305.38 333.91 305.38 334.53C305.38 335.15 304.88 335.65 304.26 335.65Z" fill="#4A2C76"/>
<path d="M268.78 346.24H246.26C245.64 346.24 245.14 345.74 245.14 345.12C245.14 344.5 245.64 344 246.26 344H268.78C269.4 344 269.9 344.5 269.9 345.12C269.9 345.74 269.4 346.24 268.78 346.24Z" fill="#4A2C76"/>
<path d="M304.26 346.24H274.74C274.12 346.24 273.62 345.74 273.62 345.12C273.62 344.5 274.12 344 274.74 344H304.26C304.88 344 305.38 344.5 305.38 345.12C305.38 345.74 304.88 346.24 304.26 346.24Z" fill="#4A2C76"/>
<path d="M289.57 326.86H274.51C273.66 326.86 272.96 326.16 272.96 325.31V324.98C272.96 324.13 273.66 323.43 274.51 323.43H289.57C290.42 323.43 291.12 324.13 291.12 324.98V325.31C291.13 326.16 290.43 326.86 289.57 326.86Z" fill="#4A2C76"/>
<path d="M282.77 113.09H261.45C260.51 113.09 259.73 112.32 259.73 111.37C259.73 110.43 260.5 109.65 261.45 109.65H282.77C283.71 109.65 284.49 110.42 284.49 111.37C284.48 112.32 283.71 113.09 282.77 113.09Z" fill="#4A2C76"/>
<path d="M283.36 121.88H260.84C260.22 121.88 259.72 121.38 259.72 120.76C259.72 120.14 260.22 119.64 260.84 119.64H283.36C283.98 119.64 284.48 120.14 284.48 120.76C284.48 121.38 283.98 121.88 283.36 121.88Z" fill="#4A2C76"/>
<path d="M273.13 127.18H260.84C260.22 127.18 259.72 126.68 259.72 126.06C259.72 125.44 260.22 124.94 260.84 124.94H273.13C273.75 124.94 274.25 125.44 274.25 126.06C274.25 126.67 273.75 127.18 273.13 127.18Z" fill="#4A2C76"/>
<path d="M299.46 127.18H278.85C278.23 127.18 277.73 126.68 277.73 126.06C277.73 125.44 278.23 124.94 278.85 124.94H299.46C300.08 124.94 300.58 125.44 300.58 126.06C300.58 126.67 300.07 127.18 299.46 127.18Z" fill="#4A2C76"/>
<path d="M318.84 121.88H289.32C288.7 121.88 288.2 121.38 288.2 120.76C288.2 120.14 288.7 119.64 289.32 119.64H318.84C319.46 119.64 319.96 120.14 319.96 120.76C319.96 121.38 319.46 121.88 318.84 121.88Z" fill="#4A2C76"/>
<path d="M304.16 113.09H289.1C288.25 113.09 287.55 112.39 287.55 111.54V111.21C287.55 110.36 288.25 109.66 289.1 109.66H304.16C305.01 109.66 305.71 110.36 305.71 111.21V111.54C305.71 112.39 305.01 113.09 304.16 113.09Z" fill="#4A2C76"/>
<path d="M302.16 261.53H278.82C277.79 261.53 276.94 260.68 276.94 259.65C276.94 258.62 277.79 257.77 278.82 257.77H302.16C303.19 257.77 304.04 258.62 304.04 259.65C304.04 260.68 303.2 261.53 302.16 261.53Z" fill="#4A2C76"/>
<path d="M302.82 271.15H278.17C277.5 271.15 276.95 270.6 276.95 269.93C276.95 269.26 277.5 268.71 278.17 268.71H302.82C303.49 268.71 304.04 269.26 304.04 269.93C304.04 270.6 303.49 271.15 302.82 271.15Z" fill="#4A2C76"/>
<path d="M291.62 276.95H278.17C277.5 276.95 276.95 276.4 276.95 275.73C276.95 275.06 277.5 274.51 278.17 274.51H291.62C292.29 274.51 292.84 275.06 292.84 275.73C292.84 276.4 292.29 276.95 291.62 276.95Z" fill="#4A2C76"/>
<path d="M320.44 276.95H297.87C297.2 276.95 296.65 276.4 296.65 275.73C296.65 275.06 297.2 274.51 297.87 274.51H320.44C321.11 274.51 321.66 275.06 321.66 275.73C321.66 276.4 321.11 276.95 320.44 276.95Z" fill="#4A2C76"/>
<path d="M341.66 271.15H309.34C308.67 271.15 308.12 270.6 308.12 269.93C308.12 269.26 308.67 268.71 309.34 268.71H341.66C342.33 268.71 342.89 269.26 342.89 269.93C342.89 270.6 342.33 271.15 341.66 271.15Z" fill="#4A2C76"/>
<path d="M302.82 282.74H278.17C277.5 282.74 276.95 282.19 276.95 281.52C276.95 280.85 277.5 280.29 278.17 280.29H302.82C303.49 280.29 304.04 280.84 304.04 281.52C304.04 282.19 303.49 282.74 302.82 282.74Z" fill="#4A2C76"/>
<path d="M341.66 282.74H309.34C308.67 282.74 308.12 282.19 308.12 281.52C308.12 280.85 308.67 280.29 309.34 280.29H341.66C342.33 280.29 342.89 280.84 342.89 281.52C342.89 282.19 342.33 282.74 341.66 282.74Z" fill="#4A2C76"/>
<path d="M302.82 288.78H278.17C277.5 288.78 276.95 288.23 276.95 287.56C276.95 286.89 277.5 286.34 278.17 286.34H302.82C303.49 286.34 304.04 286.89 304.04 287.56C304.04 288.23 303.49 288.78 302.82 288.78Z" fill="#4A2C76"/>
<path d="M341.66 288.78H309.34C308.67 288.78 308.12 288.23 308.12 287.56C308.12 286.89 308.67 286.34 309.34 286.34H341.66C342.33 286.34 342.89 286.89 342.89 287.56C342.89 288.23 342.33 288.78 341.66 288.78Z" fill="#4A2C76"/>
<path d="M325.58 261.53H309.1C308.17 261.53 307.4 260.77 307.4 259.83V259.47C307.4 258.54 308.16 257.77 309.1 257.77H325.58C326.51 257.77 327.28 258.53 327.28 259.47V259.83C327.28 260.76 326.52 261.53 325.58 261.53Z" fill="#4A2C76"/>
<path d="M245.52 95.2401L243.85 96.4401L242.17 95.2501C242.54 94.7301 243.16 94.3801 243.85 94.3801C244.54 94.3801 245.15 94.7201 245.52 95.2401Z" fill="#EBE7F7"/>
<path d="M243.85 91.4502C242.17 91.4502 240.68 92.2902 239.78 93.5702L240.84 94.3102C241.51 93.3702 242.61 92.7502 243.85 92.7502C245.08 92.7502 246.17 93.3602 246.84 94.2902L247.9 93.5302C246.99 92.2702 245.51 91.4502 243.85 91.4502Z" fill="#EBE7F7"/>
<path d="M243.85 85.8901C240.29 85.8901 237.15 87.6601 235.24 90.3601L236.3 91.1001C237.97 88.7301 240.73 87.1801 243.85 87.1801C246.94 87.1801 249.68 88.7101 251.36 91.0401L252.41 90.2801C250.5 87.6301 247.37 85.8901 243.85 85.8901Z" fill="#EBE7F7"/>
<path d="M243.85 88.9402C241.32 88.9402 239.08 90.1902 237.71 92.1102L238.77 92.8502C239.9 91.2702 241.75 90.2402 243.85 90.2402C245.93 90.2402 247.77 91.2602 248.9 92.8202L249.95 92.0702C248.58 90.1702 246.36 88.9402 243.85 88.9402Z" fill="#EBE7F7"/>
<path d="M234.46 272.39C234.46 274.85 235.29 277.11 236.68 278.91C237.14 279.51 237.67 280.06 238.24 280.55C238.81 281.04 239.44 281.46 240.1 281.82C241.6 282.63 243.32 283.09 245.15 283.09C247.43 283.09 249.54 282.37 251.28 281.16C251.37 281.1 251.45 281.04 251.54 280.97C252.33 280.38 253.03 279.69 253.63 278.92C255.02 277.12 255.85 274.86 255.85 272.4C255.85 266.5 251.06 261.71 245.16 261.71C239.24 261.71 234.46 266.49 234.46 272.39Z" fill="#EBE7F7"/>
<path d="M248.04 279.25L247.06 278.38C246.98 278.4 246.9 278.41 246.81 278.43C246.63 278.31 246.44 278.18 246.23 278.07C246.29 277.67 246.35 277.3 246.39 276.98C246.54 275.83 246.56 275.14 246.56 275.04C247.08 275.01 247.43 274.96 247.43 274.96C248.42 274.73 248.47 271.36 248.24 269.6C248.43 269.6 248.61 269.58 248.79 269.5C249.54 269.17 249.58 268.04 249.58 268.04C249.58 268.04 249.36 268.44 249.04 268.57C249.04 268.57 250.29 266.86 248.84 265.69C247.4 264.52 245.92 265.28 245.08 265.33C243.24 265.44 242.04 265.55 241.44 266.77C240.84 267.97 241.08 271.26 242.22 272.47C242.24 272.58 242.26 272.69 242.27 272.81C242.34 273.24 242.5 273.6 242.72 273.88C242.46 275.3 241.88 276.35 241.35 277.06C240.99 277.34 240.67 277.69 240.37 278.12C240.36 278.13 240.35 278.13 240.35 278.13C240.35 278.13 240.35 278.13 240.36 278.13C239.8 278.92 239.35 279.95 238.98 281.16C238.98 281.17 238.98 281.17 238.97 281.18C239.57 281.61 240.23 281.96 240.92 282.25C240.97 282.27 241.01 282.29 241.06 282.31C241.07 282.31 241.08 282.32 241.09 282.32C241.16 282.35 241.24 282.38 241.31 282.41C241.49 282.48 241.67 282.55 241.85 282.6C242.04 282.66 242.24 282.72 242.43 282.77C242.52 282.79 242.61 282.82 242.7 282.83C242.78 282.85 242.86 282.87 242.94 282.88C242.95 282.88 242.96 282.89 242.97 282.89C243.02 282.9 243.08 282.91 243.13 282.92C243.25 282.94 243.38 282.97 243.51 282.98C243.54 282.98 243.57 282.99 243.6 282.99C243.67 283 243.74 283.01 243.81 283.02C243.91 283.03 244.01 283.04 244.11 283.05C244.22 283.06 244.33 283.07 244.45 283.08C244.55 283.09 244.66 283.09 244.77 283.1C244.88 283.1 244.99 283.11 245.11 283.11C245.23 283.11 245.35 283.11 245.47 283.1C245.48 283.1 245.49 283.1 245.5 283.1C245.53 283.1 245.56 283.1 245.59 283.1C245.65 283.1 245.71 283.1 245.77 283.09C245.78 283.09 245.78 283.09 245.79 283.09C245.9 283.08 246.01 283.08 246.13 283.06C247.57 282.92 248.94 282.5 250.16 281.84C249.54 280.76 248.77 279.93 248.04 279.25Z" fill="#4A2C76"/>
<path d="M339.41 334.53C339.41 337 340.24 339.28 341.64 341.1C342.1 341.7 342.63 342.26 343.21 342.75C345.09 344.34 347.51 345.3 350.17 345.3C352.58 345.3 354.8 344.51 356.6 343.17C357.39 342.58 358.1 341.88 358.7 341.1C360.1 339.28 360.93 337.01 360.93 334.53C360.93 328.59 356.11 323.77 350.17 323.77C344.23 323.77 339.41 328.59 339.41 334.53Z" fill="#EBE7F7"/>
<path d="M355.68 340.63C355.67 340.6 355.65 340.57 355.63 340.55C355.59 340.49 355.53 340.43 355.46 340.37C355.32 340.26 355.14 340.16 354.93 340.07C354.92 340.07 354.92 340.06 354.91 340.06C353.98 339.65 352.75 339.52 352.75 339.52C352.4 339.47 352.12 339.43 351.99 339.42C351.63 339.13 351.14 337.98 351.06 336.21V336.22C351.06 336.22 351.46 335.28 352 335.58C352.83 336.03 354.44 334.2 353.93 331.78C353.87 331.52 353.81 331.28 353.73 331.06C353.91 331.13 354.1 331.2 354.28 331.2C354.76 331.2 355.49 329.96 355.59 329.55C355.69 329.14 355.58 327.77 354.92 327.37C354.27 326.97 353.25 327.43 353.21 327.45C353.54 326.99 354.67 327.08 354.87 327.1C352.24 326.55 351.69 328.24 351.65 328.39C349.97 326.88 347.42 329.49 346.79 330.19C346.75 330.23 346.71 330.27 346.66 330.31C346.52 330.39 346.36 330.53 346.19 330.73C345.86 331.13 345.76 331.64 345.76 332.13C345.76 333 346.09 333.8 346.09 333.8C346.24 335.26 346.67 337.08 347.34 337.13C347.34 337.13 347.58 337.13 347.94 337.1C347.94 337.12 347.94 337.13 347.94 337.15C347.95 337.4 347.96 337.67 347.96 337.95V338.12C347.96 338.86 347.92 339.56 347.75 339.64C347.69 339.65 347.65 339.65 347.6 339.65C347.53 339.65 347.41 339.67 347.41 339.67C346.82 339.75 346.41 339.81 346.11 339.86C345.52 339.96 345.38 340.03 345.23 340.14C345.2 340.17 345.16 340.21 345.13 340.25C344.7 340.57 343.91 341.31 343.23 342.75C345.11 344.34 347.53 345.3 350.19 345.3C352.6 345.3 354.82 344.51 356.62 343.17C356.3 342.12 355.99 341.22 355.68 340.63Z" fill="#41B8E1"/>
<path d="M339.41 118.21C339.41 120.68 340.24 122.96 341.64 124.78C342.1 125.38 342.63 125.94 343.21 126.43C345.09 128.02 347.51 128.98 350.17 128.98C352.58 128.98 354.8 128.19 356.6 126.85C357.39 126.26 358.1 125.56 358.7 124.78C360.1 122.96 360.93 120.69 360.93 118.21C360.93 112.27 356.11 107.45 350.17 107.45C344.23 107.45 339.41 112.27 339.41 118.21Z" fill="#EBE7F7"/>
<path d="M355.68 124.31C355.67 124.28 355.65 124.26 355.63 124.23C355.59 124.17 355.53 124.11 355.46 124.05C355.32 123.94 355.14 123.84 354.93 123.75C354.92 123.75 354.92 123.74 354.91 123.74C353.98 123.33 352.75 123.2 352.75 123.2C352.4 123.14 352.12 123.11 351.99 123.1C351.9 123.03 351.81 122.91 351.72 122.75C351.42 122.23 351.13 121.24 351.07 119.89V119.9C351.07 119.9 351.47 118.97 352.01 119.26C352.84 119.71 354.45 117.88 353.94 115.46C353.88 115.2 353.82 114.96 353.74 114.74C353.92 114.81 354.11 114.88 354.29 114.88C354.77 114.88 355.5 113.64 355.6 113.23C355.7 112.81 355.59 111.45 354.93 111.05C354.28 110.65 353.26 111.11 353.22 111.13C353.55 110.67 354.68 110.76 354.88 110.78C352.25 110.23 351.7 111.93 351.66 112.07C349.98 110.56 347.43 113.18 346.8 113.87C346.76 113.91 346.72 113.95 346.67 113.99C346.53 114.07 346.37 114.21 346.2 114.42C345.87 114.82 345.77 115.33 345.77 115.82C345.77 116.69 346.1 117.49 346.1 117.49C346.25 118.96 346.68 120.77 347.35 120.82C347.35 120.82 347.59 120.82 347.95 120.79C347.95 120.8 347.95 120.82 347.95 120.84C347.96 121.09 347.97 121.36 347.97 121.64V121.81C347.97 122.55 347.93 123.24 347.76 123.33C347.7 123.33 347.66 123.34 347.61 123.34C347.54 123.35 347.42 123.36 347.42 123.36C346.83 123.44 346.42 123.5 346.12 123.55C345.53 123.65 345.39 123.72 345.24 123.83C345.21 123.86 345.17 123.9 345.14 123.94C344.71 124.26 343.92 125.01 343.24 126.44C343.34 126.53 343.45 126.61 343.55 126.69C343.57 126.7 343.59 126.72 343.6 126.73C343.68 126.79 343.76 126.85 343.84 126.91C343.9 126.96 343.95 127 344.01 127.04C344.07 127.08 344.13 127.12 344.19 127.16C344.27 127.22 344.36 127.28 344.45 127.33C344.51 127.37 344.57 127.41 344.63 127.44C344.7 127.49 344.78 127.53 344.86 127.57C344.94 127.62 345.03 127.67 345.11 127.71C345.12 127.71 345.12 127.72 345.13 127.72L345.14 127.73C345.15 127.74 345.17 127.74 345.18 127.75C345.25 127.79 345.32 127.82 345.38 127.85C345.39 127.85 345.39 127.85 345.39 127.86C345.41 127.87 345.43 127.88 345.45 127.89C345.49 127.91 345.53 127.93 345.57 127.95C345.61 127.97 345.64 127.98 345.68 128C345.76 128.04 345.85 128.08 345.94 128.12C346.03 128.16 346.12 128.19 346.21 128.23C346.25 128.25 346.29 128.26 346.33 128.28C346.37 128.29 346.41 128.31 346.45 128.33C346.53 128.36 346.62 128.39 346.7 128.42C346.79 128.45 346.87 128.48 346.96 128.5C347.03 128.52 347.11 128.55 347.18 128.57C347.19 128.57 347.19 128.57 347.2 128.58C347.25 128.59 347.29 128.61 347.34 128.62C347.6 128.69 347.86 128.75 348.12 128.8C348.24 128.82 348.35 128.85 348.47 128.86C348.5 128.87 348.53 128.87 348.56 128.87C348.57 128.87 348.57 128.87 348.58 128.87H348.59C348.67 128.88 348.74 128.89 348.82 128.9C348.84 128.9 348.85 128.91 348.87 128.91C348.88 128.91 348.89 128.91 348.9 128.92C348.97 128.93 349.04 128.94 349.11 128.94C349.12 128.94 349.14 128.94 349.15 128.94C349.17 128.94 349.19 128.95 349.21 128.95C349.34 128.96 349.46 128.97 349.59 128.98H349.61C349.65 128.98 349.69 128.99 349.73 128.99C349.76 128.99 349.78 128.99 349.8 128.99C349.92 129 350.05 129 350.17 129C352.58 129 354.8 128.21 356.6 126.87C356.3 125.8 355.99 124.91 355.68 124.31Z" fill="#41B8E1"/>
<defs>
<linearGradient id="paint0_linear_18_564" x1="-6.26789" y1="193.375" x2="555.909" y2="193.375" gradientUnits="userSpaceOnUse">
<stop stop-color="#AB06D4"/>
<stop offset="1" stop-color="#490F8A"/>
</linearGradient>
<linearGradient id="paint1_linear_18_564" x1="-6.26791" y1="58.9891" x2="555.909" y2="58.9891" gradientUnits="userSpaceOnUse">
<stop stop-color="#AB06D4"/>
<stop offset="1" stop-color="#490F8A"/>
</linearGradient>
<linearGradient id="paint2_linear_18_564" x1="222.888" y1="226.222" x2="372.382" y2="226.222" gradientUnits="userSpaceOnUse">
<stop stop-color="#FED747"/>
<stop offset="1" stop-color="#F94E43"/>
</linearGradient>
<linearGradient id="paint3_linear_18_564" x1="222.888" y1="226.222" x2="356.314" y2="226.222" gradientUnits="userSpaceOnUse">
<stop stop-color="#FED747"/>
<stop offset="1" stop-color="#F94E43"/>
</linearGradient>
</defs>
</svg>
