<svg width="46" height="46" viewBox="0 0 46 46" fill="none" xmlns="http://www.w3.org/2000/svg">
<circle cx="22.5373" cy="22.5373" r="22.5373" fill="#1B92D1" fill-opacity="0.2"/>
<circle cx="22.5373" cy="22.5373" r="18.8452" fill="white"/>
<path d="M31.5325 13.7431C28.6743 14.9269 16.4189 20.0032 13.0327 21.3868C10.7618 22.273 12.0912 23.1039 12.0912 23.1039C12.0912 23.1039 14.0297 23.7685 15.6915 24.267C17.3532 24.7655 18.2394 24.2117 18.2394 24.2117L26.0491 18.9498C28.8186 17.0665 28.154 18.6173 27.4891 19.2822C26.0491 20.7224 23.6674 22.9931 21.6734 24.821C20.7872 25.5964 21.2302 26.261 21.6181 26.5934C23.0581 27.8121 26.9909 30.3046 27.2122 30.4707C28.3823 31.2991 30.6839 32.4914 31.034 29.9722L32.4187 21.2762C32.8619 18.3407 33.3049 15.6265 33.3602 14.8511C33.5265 12.9677 31.5325 13.7431 31.5325 13.7431Z" fill="#1B92D1"/>
</svg>
