<svg width="46" height="46" viewBox="0 0 46 46" fill="none" xmlns="http://www.w3.org/2000/svg">
<circle cx="22.5373" cy="22.5373" r="22.5373" fill="#67C15E" fill-opacity="0.2"/>
<circle cx="22.5373" cy="22.5373" r="18.8452" fill="white"/>
<g clip-path="url(#clip0_78_782)">
<path fill-rule="evenodd" clip-rule="evenodd" d="M22.5339 10.9226C16.1309 10.9226 10.9225 16.1325 10.9225 22.5373C10.9225 25.0774 11.7416 27.433 13.1341 29.3451L11.6869 33.6604L16.1513 32.2336C17.9875 33.449 20.1787 34.1522 22.5406 34.1522C28.9437 34.1522 34.1521 28.9421 34.1521 22.5375C34.1521 16.1327 28.9437 10.9228 22.5406 10.9228L22.5339 10.9226ZM19.2913 16.8223C19.0661 16.283 18.8954 16.2625 18.5543 16.2487C18.4381 16.2419 18.3086 16.2352 18.1651 16.2352C17.7212 16.2352 17.2571 16.3649 16.9772 16.6516C16.636 16.9998 15.7895 17.8123 15.7895 19.4784C15.7895 21.1446 17.0046 22.756 17.1683 22.9815C17.339 23.2066 19.5372 26.6753 22.9502 28.089C25.6192 29.1952 26.4112 29.0926 27.0187 28.9629C27.906 28.7718 29.0188 28.116 29.2987 27.3242C29.5787 26.5319 29.5787 25.8559 29.4966 25.7125C29.4147 25.5692 29.1893 25.4875 28.8481 25.3165C28.5069 25.1458 26.848 24.3264 26.534 24.2171C26.2267 24.1011 25.9333 24.1422 25.7013 24.47C25.3736 24.9274 25.0528 25.3919 24.7933 25.6717C24.5886 25.8902 24.2539 25.9176 23.9742 25.8014C23.5987 25.6445 22.5476 25.2755 21.2504 24.1215C20.2469 23.2272 19.5643 22.1143 19.3665 21.7798C19.1684 21.4385 19.346 21.2402 19.5029 21.0559C19.6736 20.8442 19.8373 20.694 20.008 20.4959C20.1787 20.298 20.2743 20.1955 20.3835 19.9633C20.4997 19.738 20.4176 19.5058 20.3357 19.3351C20.2538 19.1643 19.5713 17.4982 19.2913 16.8223Z" fill="#67C15E"/>
</g>
<defs>
<clipPath id="clip0_78_782">
<rect width="23.2296" height="23.2296" fill="white" transform="translate(10.9225 10.9226)"/>
</clipPath>
</defs>
</svg>
