<svg width="18" height="18" viewBox="0 0 18 18" fill="none" xmlns="http://www.w3.org/2000/svg">
<path d="M4.14995 17.49H13.8399C15.8399 17.49 17.4799 15.85 17.4799 13.85V4.16002C17.4799 2.16002 15.8399 0.52002 13.8399 0.52002H4.14995C2.14995 0.52002 0.509949 2.16002 0.509949 4.16002V13.85C0.509949 15.85 2.14995 17.49 4.14995 17.49Z" fill="#470137"/>
<path d="M9.35993 12.3199H7.63993L6.55993 10.2899C6.51993 10.2199 6.48993 10.1599 6.46993 10.1199C6.44993 10.0799 6.42993 10.0299 6.40993 9.96994H6.38993C6.35993 10.0399 6.33993 10.0999 6.30993 10.1399C6.28993 10.1799 6.25993 10.2399 6.22993 10.3099L5.10993 12.3299H3.48993L5.43993 9.13994L3.61993 5.94994H5.31993L6.27993 7.76994C6.31993 7.83994 6.34993 7.90994 6.37993 7.95994C6.40993 8.01994 6.43993 8.07994 6.46993 8.14994H6.48993C6.52993 8.05994 6.55993 7.99994 6.58993 7.93994C6.60993 7.88994 6.64993 7.81994 6.68993 7.73994L7.68993 5.93994H9.30993L7.46993 9.07994L9.35993 12.3199Z" fill="#FF61F6"/>
<path d="M13.0899 11.73C12.9299 11.96 12.7199 12.14 12.4799 12.26C12.2399 12.38 11.9599 12.44 11.6399 12.44C11.0599 12.44 10.5999 12.24 10.2399 11.84C9.8899 11.44 9.7099 10.88 9.7099 10.16C9.7099 9.40997 9.8999 8.79997 10.2899 8.34997C10.6799 7.89997 11.2199 7.66997 11.8999 7.66997C12.1499 7.66997 12.3899 7.72997 12.6099 7.83997C12.8299 7.94997 12.9899 8.07997 13.0799 8.22997H13.0999V5.58997H14.5099V12.34H13.0999V11.75H13.0899V11.73ZM11.1399 10.1C11.1399 10.49 11.2299 10.8 11.3999 11.01C11.5699 11.22 11.8199 11.33 12.1299 11.33C12.4299 11.33 12.6699 11.22 12.8499 10.99C13.0299 10.76 13.1299 10.47 13.1299 10.1V9.75997C13.1299 9.46997 13.0399 9.22997 12.8599 9.02997C12.6799 8.83997 12.4499 8.73997 12.1599 8.73997C11.8399 8.73997 11.5799 8.85997 11.3999 9.09997C11.2299 9.34997 11.1399 9.67997 11.1399 10.1Z" fill="#FF61F6"/>
</svg>
